{"glyphs":{"0":{"ha":922,"x_min":0,"x_max":0,"o":"m 461 -14 b 839 472 750 -14 839 208 b 461 958 839 736 750 958 b 83 472 172 958 83 736 b 461 -14 83 208 172 -14 z m 222 472 b 239 664 222 549 228 613 l 604 149 b 461 111 569 124 522 111 b 222 472 275 111 222 221 z m 317 796 b 461 833 353 821 400 833 b 700 472 646 833 700 724 b 682 279 700 394 694 331 z "},"1":{"ha":503,"x_min":0,"x_max":0,"o":"m 406 944 l 83 944 l 83 819 l 267 819 l 267 0 l 406 0 z "},"2":{"ha":775,"x_min":0,"x_max":0,"o":"m 678 125 l 292 125 l 508 335 b 692 667 629 451 692 532 b 388 958 692 801 613 958 b 83 625 163 958 83 801 l 222 625 b 388 833 222 764 272 833 b 553 674 503 833 553 771 b 372 394 553 572 497 511 l 83 125 l 83 0 l 678 0 z "},"3":{"ha":803,"x_min":0,"x_max":0,"o":"m 222 292 l 83 292 b 401 -14 83 143 163 -14 b 719 292 640 -14 719 143 b 417 542 719 482 590 569 l 692 819 l 692 944 l 125 944 l 125 819 l 508 819 l 263 569 l 318 444 l 422 444 b 581 292 510 444 581 410 b 401 111 581 181 531 111 b 222 292 272 111 222 181 z "},"4":{"ha":750,"x_min":0,"x_max":0,"o":"m 667 0 l 667 944 l 528 944 l 528 461 l 222 461 l 222 875 l 83 875 l 83 336 l 528 336 l 528 0 z "},"5":{"ha":825,"x_min":0,"x_max":0,"o":"m 106 422 l 231 422 b 403 528 253 479 306 528 b 603 319 539 528 603 458 b 403 111 603 181 539 111 b 228 244 303 111 250 176 l 83 244 b 403 -14 107 93 208 -14 b 742 319 649 -14 742 143 b 451 653 742 496 649 653 b 250 560 361 653 296 625 l 286 819 l 675 819 l 675 944 l 175 944 z "},"6":{"ha":831,"x_min":0,"x_max":0,"o":"m 436 653 b 222 556 339 653 264 601 b 436 833 222 679 226 833 b 650 808 492 833 560 833 l 650 931 b 436 958 542 958 489 958 b 83 569 122 958 83 707 l 83 389 b 415 -14 83 144 169 -14 b 747 319 661 -14 747 143 b 436 653 747 496 661 653 z m 222 333 b 415 529 222 458 279 529 b 608 319 551 529 608 458 b 415 111 608 181 551 111 b 222 333 279 111 222 222 z "},"7":{"ha":799,"x_min":0,"x_max":0,"o":"m 83 944 l 83 819 l 558 819 l 139 0 l 296 0 l 715 819 l 715 944 z "},"8":{"ha":853,"x_min":0,"x_max":0,"o":"m 83 250 b 426 -14 83 125 158 -14 b 769 250 694 -14 769 125 b 563 503 769 369 732 461 l 563 525 b 714 722 683 567 714 628 b 426 958 714 847 639 958 b 139 722 214 958 139 847 b 290 525 139 628 169 567 l 290 503 b 83 250 121 461 83 371 z m 222 285 b 426 451 222 383 261 451 b 631 285 590 451 631 383 b 426 111 631 186 590 111 b 222 285 261 111 222 186 z m 278 701 b 426 833 278 786 317 833 b 575 701 535 833 575 786 b 426 576 575 631 535 576 b 278 701 317 576 278 631 z "},"9":{"ha":831,"x_min":0,"x_max":0,"o":"m 394 292 b 608 389 492 292 567 343 b 394 111 608 265 604 111 b 181 136 339 111 271 111 l 181 14 b 394 -14 289 -14 342 -14 b 747 375 708 -14 747 238 l 747 556 b 415 958 747 800 661 958 b 83 625 169 958 83 801 b 394 292 83 449 169 292 z m 222 625 b 415 833 222 764 279 833 b 608 611 551 833 608 722 b 415 415 608 486 551 415 b 222 625 279 415 222 486 z "}," ":{"ha":472,"x_min":0,"x_max":0,"o":""},"A":{"ha":981,"x_min":0,"x_max":0,"o":"m 229 0 l 297 222 l 683 222 l 751 0 l 897 0 l 600 944 l 381 944 l 83 0 z m 336 347 l 479 815 l 501 815 l 644 347 z "},"Á":{"ha":981,"x_min":0,"x_max":0,"o":"m 229 0 l 297 222 l 683 222 l 751 0 l 897 0 l 600 944 l 381 944 l 83 0 z m 336 347 l 479 815 l 501 815 l 644 347 z m 435 1097 l 558 1097 l 713 1306 l 561 1306 z "},"Ă":{"ha":981,"x_min":0,"x_max":0,"o":"m 229 0 l 297 222 l 683 222 l 751 0 l 897 0 l 600 944 l 381 944 l 83 0 z m 289 1292 b 490 1083 289 1125 386 1083 b 692 1292 594 1083 692 1128 l 581 1292 b 490 1194 581 1208 539 1194 b 400 1292 442 1194 400 1208 z m 336 347 l 479 815 l 501 815 l 644 347 z "},"Â":{"ha":981,"x_min":0,"x_max":0,"o":"m 229 0 l 297 222 l 683 222 l 751 0 l 897 0 l 600 944 l 381 944 l 83 0 z m 247 1083 l 393 1083 l 486 1222 l 494 1222 l 588 1083 l 733 1083 l 546 1319 l 435 1319 z m 336 347 l 479 815 l 501 815 l 644 347 z "},"Ä":{"ha":981,"x_min":0,"x_max":0,"o":"m 229 0 l 297 222 l 683 222 l 751 0 l 897 0 l 600 944 l 381 944 l 83 0 z m 296 1097 l 435 1097 l 435 1222 l 296 1222 z m 336 347 l 479 815 l 501 815 l 644 347 z m 546 1097 l 685 1097 l 685 1222 l 546 1222 z "},"À":{"ha":981,"x_min":0,"x_max":0,"o":"m 229 0 l 297 222 l 683 222 l 751 0 l 897 0 l 600 944 l 381 944 l 83 0 z m 282 1306 l 436 1097 l 560 1097 l 433 1306 z m 336 347 l 479 815 l 501 815 l 644 347 z "},"Ā":{"ha":981,"x_min":0,"x_max":0,"o":"m 229 0 l 297 222 l 683 222 l 751 0 l 897 0 l 600 944 l 381 944 l 83 0 z m 274 1125 l 707 1125 l 707 1236 l 274 1236 z m 336 347 l 479 815 l 501 815 l 644 347 z "},"Ą":{"ha":981,"x_min":0,"x_max":0,"o":"m 229 0 l 297 222 l 683 222 l 751 0 l 814 0 b 992 -236 688 -96 708 -278 l 992 -153 b 897 0 782 -181 838 -72 l 600 944 l 381 944 l 83 0 z m 336 347 l 479 815 l 501 815 l 644 347 z "},"Å":{"ha":981,"x_min":0,"x_max":0,"o":"m 229 0 l 297 222 l 683 222 l 751 0 l 897 0 l 600 944 l 381 944 l 83 0 z m 310 1236 b 490 1069 310 1149 375 1069 b 671 1236 604 1069 671 1149 b 490 1403 671 1324 604 1403 b 310 1236 375 1403 310 1324 z m 336 347 l 479 815 l 501 815 l 644 347 z m 421 1236 b 490 1292 421 1275 444 1292 b 560 1236 536 1292 560 1275 b 490 1181 560 1197 536 1181 b 421 1236 444 1181 421 1197 z "},"Ã":{"ha":981,"x_min":0,"x_max":0,"o":"m 229 0 l 297 222 l 683 222 l 751 0 l 897 0 l 600 944 l 381 944 l 83 0 z m 231 1111 l 342 1111 b 397 1194 342 1167 351 1194 b 583 1111 468 1194 471 1111 b 750 1306 726 1111 750 1236 l 639 1306 b 583 1222 639 1250 629 1222 b 397 1306 513 1222 510 1306 b 231 1111 254 1306 231 1181 z m 336 347 l 479 815 l 501 815 l 644 347 z "},"Æ":{"ha":1319,"x_min":0,"x_max":0,"o":"m 229 0 l 297 222 l 642 222 l 642 0 l 1250 0 l 1250 125 l 781 125 l 781 424 l 1139 424 l 1139 549 l 781 549 l 781 819 l 1250 819 l 1250 944 l 381 944 l 83 0 z m 336 347 l 482 819 l 642 819 l 642 347 z "},"B":{"ha":831,"x_min":0,"x_max":0,"o":"m 97 0 l 443 0 b 747 264 671 0 747 129 b 544 493 747 379 707 472 l 544 515 b 719 708 683 535 719 618 b 443 944 719 822 640 944 l 97 944 z m 236 125 l 236 438 l 443 438 b 608 275 568 438 608 403 b 443 125 608 160 568 125 z m 236 563 l 236 819 l 443 819 b 581 697 547 819 581 785 b 443 563 581 597 547 563 z "},"C":{"ha":957,"x_min":0,"x_max":0,"o":"m 69 472 b 489 -14 69 222 186 -14 b 888 360 747 -14 879 151 l 749 360 b 489 111 725 196 678 111 b 208 472 289 111 208 221 b 489 833 208 724 289 833 b 749 585 678 833 725 749 l 888 585 b 489 958 879 793 747 958 b 69 472 186 958 69 722 z "},"Ć":{"ha":957,"x_min":0,"x_max":0,"o":"m 69 472 b 489 -14 69 222 186 -14 b 888 360 747 -14 879 151 l 749 360 b 489 111 725 196 678 111 b 208 472 289 111 208 221 b 489 833 208 724 289 833 b 749 585 678 833 725 749 l 888 585 b 489 958 879 793 747 958 b 69 472 186 958 69 722 z m 424 1097 l 547 1097 l 701 1306 l 550 1306 z "},"Č":{"ha":957,"x_min":0,"x_max":0,"o":"m 69 472 b 489 -14 69 222 186 -14 b 888 360 747 -14 879 151 l 749 360 b 489 111 725 196 678 111 b 208 472 289 111 208 221 b 489 833 208 724 289 833 b 749 585 678 833 725 749 l 888 585 b 489 958 879 793 747 958 b 69 472 186 958 69 722 z m 236 1333 l 424 1097 l 535 1097 l 722 1333 l 576 1333 l 483 1194 l 475 1194 l 382 1333 z "},"Ç":{"ha":957,"x_min":0,"x_max":0,"o":"m 69 472 b 438 -11 69 238 172 14 l 418 -42 b 372 -139 535 -64 507 -167 l 372 -222 b 496 -42 614 -258 665 -75 l 503 -14 b 888 360 751 -8 879 156 l 749 360 b 489 111 725 196 678 111 b 208 472 289 111 208 221 b 489 833 208 724 289 833 b 749 585 678 833 725 749 l 888 585 b 489 958 879 793 747 958 b 69 472 186 958 69 722 z "},"Ċ":{"ha":957,"x_min":0,"x_max":0,"o":"m 69 472 b 489 -14 69 222 186 -14 b 888 360 747 -14 879 151 l 749 360 b 489 111 725 196 678 111 b 208 472 289 111 208 221 b 489 833 208 724 289 833 b 749 585 678 833 725 749 l 888 585 b 489 958 879 793 747 958 b 69 472 186 958 69 722 z m 410 1097 l 549 1097 l 549 1222 l 410 1222 z "},"D":{"ha":915,"x_min":0,"x_max":0,"o":"m 97 0 l 408 0 b 832 472 722 0 832 161 b 408 944 832 785 722 944 l 97 944 z m 236 125 l 236 819 l 408 819 b 693 472 625 819 693 743 b 408 125 693 207 625 125 z "},"Ð":{"ha":943,"x_min":0,"x_max":0,"o":"m 139 0 l 450 0 b 874 472 764 0 874 161 b 450 944 874 785 764 944 l 139 944 l 139 508 l 42 508 l 42 383 l 139 383 z m 278 125 l 278 383 l 531 383 l 531 508 l 278 508 l 278 819 l 450 819 b 735 472 667 819 735 743 b 450 125 735 207 667 125 z "},"Ď":{"ha":915,"x_min":0,"x_max":0,"o":"m 97 0 l 408 0 b 832 472 722 0 832 161 b 408 944 832 785 722 944 l 97 944 z m 167 1333 l 354 1097 l 465 1097 l 653 1333 l 507 1333 l 414 1194 l 406 1194 l 313 1333 z m 236 125 l 236 819 l 408 819 b 693 472 625 819 693 743 b 408 125 693 207 625 125 z "},"Đ":{"ha":943,"x_min":0,"x_max":0,"o":"m 139 0 l 450 0 b 874 472 764 0 874 161 b 450 944 874 785 764 944 l 139 944 l 139 508 l 42 508 l 42 383 l 139 383 z m 278 125 l 278 383 l 531 383 l 531 508 l 278 508 l 278 819 l 450 819 b 735 472 667 819 735 743 b 450 125 735 207 667 125 z "},"E":{"ha":789,"x_min":0,"x_max":0,"o":"m 97 0 l 706 0 l 706 125 l 236 125 l 236 424 l 594 424 l 594 549 l 236 549 l 236 819 l 706 819 l 706 944 l 97 944 z "},"É":{"ha":789,"x_min":0,"x_max":0,"o":"m 97 0 l 706 0 l 706 125 l 236 125 l 236 424 l 594 424 l 594 549 l 236 549 l 236 819 l 706 819 l 706 944 l 97 944 z m 346 1097 l 469 1097 l 624 1306 l 472 1306 z "},"Ě":{"ha":789,"x_min":0,"x_max":0,"o":"m 97 0 l 706 0 l 706 125 l 236 125 l 236 424 l 594 424 l 594 549 l 236 549 l 236 819 l 706 819 l 706 944 l 97 944 z m 158 1333 l 346 1097 l 457 1097 l 644 1333 l 499 1333 l 406 1194 l 397 1194 l 304 1333 z "},"Ê":{"ha":789,"x_min":0,"x_max":0,"o":"m 97 0 l 706 0 l 706 125 l 236 125 l 236 424 l 594 424 l 594 549 l 236 549 l 236 819 l 706 819 l 706 944 l 97 944 z m 158 1083 l 304 1083 l 397 1222 l 406 1222 l 499 1083 l 644 1083 l 457 1319 l 346 1319 z "},"Ë":{"ha":789,"x_min":0,"x_max":0,"o":"m 97 0 l 706 0 l 706 125 l 236 125 l 236 424 l 594 424 l 594 549 l 236 549 l 236 819 l 706 819 l 706 944 l 97 944 z m 207 1097 l 346 1097 l 346 1222 l 207 1222 z m 457 1097 l 596 1097 l 596 1222 l 457 1222 z "},"Ė":{"ha":789,"x_min":0,"x_max":0,"o":"m 97 0 l 706 0 l 706 125 l 236 125 l 236 424 l 594 424 l 594 549 l 236 549 l 236 819 l 706 819 l 706 944 l 97 944 z m 332 1097 l 471 1097 l 471 1222 l 332 1222 z "},"È":{"ha":789,"x_min":0,"x_max":0,"o":"m 97 0 l 706 0 l 706 125 l 236 125 l 236 424 l 594 424 l 594 549 l 236 549 l 236 819 l 706 819 l 706 944 l 97 944 z m 193 1306 l 347 1097 l 471 1097 l 344 1306 z "},"Ē":{"ha":789,"x_min":0,"x_max":0,"o":"m 97 0 l 706 0 l 706 125 l 236 125 l 236 424 l 594 424 l 594 549 l 236 549 l 236 819 l 706 819 l 706 944 l 97 944 z m 185 1125 l 618 1125 l 618 1236 l 185 1236 z "},"Ę":{"ha":789,"x_min":0,"x_max":0,"o":"m 97 0 l 622 0 b 800 -236 496 -96 517 -278 l 800 -153 b 706 0 590 -181 646 -72 l 706 125 l 236 125 l 236 424 l 594 424 l 594 549 l 236 549 l 236 819 l 706 819 l 706 944 l 97 944 z "},"F":{"ha":789,"x_min":0,"x_max":0,"o":"m 97 0 l 236 0 l 236 368 l 624 368 l 624 493 l 236 493 l 236 819 l 706 819 l 706 944 l 97 944 z "},"G":{"ha":971,"x_min":0,"x_max":0,"o":"m 69 472 b 475 -14 69 222 186 -14 b 726 132 647 -14 701 78 l 749 132 l 749 0 l 888 0 l 888 471 l 385 471 l 385 346 l 749 346 b 503 111 735 224 664 111 b 208 472 303 111 208 207 b 489 833 208 738 289 833 b 722 626 650 833 711 749 l 860 626 b 489 958 846 821 719 958 b 69 472 186 958 69 722 z "},"Ğ":{"ha":971,"x_min":0,"x_max":0,"o":"m 69 472 b 475 -14 69 222 186 -14 b 726 132 647 -14 701 78 l 749 132 l 749 0 l 888 0 l 888 471 l 385 471 l 385 346 l 749 346 b 503 111 735 224 664 111 b 208 472 303 111 208 207 b 489 833 208 738 289 833 b 722 626 650 833 711 749 l 860 626 b 489 958 846 821 719 958 b 69 472 186 958 69 722 z m 278 1292 b 479 1083 278 1125 375 1083 b 681 1292 583 1083 681 1128 l 569 1292 b 479 1194 569 1208 528 1194 b 389 1292 431 1194 389 1208 z "},"Ģ":{"ha":971,"x_min":0,"x_max":0,"o":"m 69 472 b 475 -14 69 222 186 -14 b 726 132 647 -14 701 78 l 749 132 l 749 0 l 888 0 l 888 471 l 385 471 l 385 346 l 749 346 b 503 111 735 224 664 111 b 208 472 303 111 208 207 b 489 833 208 738 289 833 b 722 626 650 833 711 749 l 860 626 b 489 958 846 821 719 958 b 69 472 186 958 69 722 z m 417 -250 l 488 -250 l 542 -153 l 542 -56 l 417 -56 l 417 -153 l 458 -153 z "},"Ġ":{"ha":971,"x_min":0,"x_max":0,"o":"m 69 472 b 475 -14 69 222 186 -14 b 726 132 647 -14 701 78 l 749 132 l 749 0 l 888 0 l 888 471 l 385 471 l 385 346 l 749 346 b 503 111 735 224 664 111 b 208 472 303 111 208 207 b 489 833 208 738 289 833 b 722 626 650 833 711 749 l 860 626 b 489 958 846 821 719 958 b 69 472 186 958 69 722 z m 410 1097 l 549 1097 l 549 1222 l 410 1222 z "},"H":{"ha":943,"x_min":0,"x_max":0,"o":"m 97 0 l 236 0 l 236 396 l 707 396 l 707 0 l 846 0 l 846 944 l 707 944 l 707 521 l 236 521 l 236 944 l 97 944 z "},"Ħ":{"ha":1083,"x_min":0,"x_max":0,"o":"m 168 0 l 307 0 l 307 396 l 778 396 l 778 0 l 917 0 l 917 681 l 1000 681 l 1000 819 l 917 819 l 917 944 l 778 944 l 778 819 l 307 819 l 307 944 l 168 944 l 168 819 l 83 819 l 83 681 l 168 681 z m 307 521 l 307 681 l 778 681 l 778 521 z "},"I":{"ha":333,"x_min":0,"x_max":0,"o":"m 97 0 l 236 0 l 236 944 l 97 944 z "},"Í":{"ha":333,"x_min":0,"x_max":0,"o":"m 97 0 l 236 0 l 236 944 l 97 944 z m 111 1097 l 235 1097 l 389 1306 l 238 1306 z "},"Î":{"ha":333,"x_min":0,"x_max":0,"o":"m 97 0 l 236 0 l 236 944 l 97 944 z m -76 1083 l 69 1083 l 163 1222 l 171 1222 l 264 1083 l 410 1083 l 222 1319 l 111 1319 z "},"Ï":{"ha":333,"x_min":0,"x_max":0,"o":"m 97 0 l 236 0 l 236 944 l 97 944 z m -28 1097 l 111 1097 l 111 1222 l -28 1222 z m 222 1097 l 361 1097 l 361 1222 l 222 1222 z "},"İ":{"ha":333,"x_min":0,"x_max":0,"o":"m 97 0 l 236 0 l 236 944 l 97 944 z m 97 1097 l 236 1097 l 236 1222 l 97 1222 z "},"Ì":{"ha":333,"x_min":0,"x_max":0,"o":"m 97 0 l 236 0 l 236 944 l 97 944 z m -42 1306 l 113 1097 l 236 1097 l 110 1306 z "},"Ī":{"ha":333,"x_min":0,"x_max":0,"o":"m 97 0 l 236 0 l 236 944 l 97 944 z m -50 1125 l 383 1125 l 383 1236 l -50 1236 z "},"Į":{"ha":333,"x_min":0,"x_max":0,"o":"m 97 0 l 153 0 b 331 -236 26 -96 47 -278 l 331 -153 b 236 0 121 -181 176 -72 l 236 944 l 97 944 z "},"J":{"ha":639,"x_min":0,"x_max":0,"o":"m 403 944 l 403 125 l 83 125 l 83 0 l 542 0 l 542 944 z "},"K":{"ha":889,"x_min":0,"x_max":0,"o":"m 97 944 l 97 0 l 236 0 l 236 410 l 361 410 l 638 0 l 806 0 l 483 472 l 806 944 l 638 944 l 361 535 l 236 535 l 236 944 z "},"Ķ":{"ha":889,"x_min":0,"x_max":0,"o":"m 97 944 l 97 0 l 236 0 l 236 410 l 361 410 l 638 0 l 806 0 l 483 472 l 806 944 l 638 944 l 361 535 l 236 535 l 236 944 z m 361 -250 l 432 -250 l 486 -153 l 486 -56 l 361 -56 l 361 -153 l 403 -153 z "},"L":{"ha":706,"x_min":0,"x_max":0,"o":"m 97 0 l 622 0 l 622 125 l 236 125 l 236 944 l 97 944 z "},"Ĺ":{"ha":706,"x_min":0,"x_max":0,"o":"m 97 0 l 622 0 l 622 125 l 236 125 l 236 944 l 97 944 z m 111 1097 l 235 1097 l 389 1306 l 238 1306 z "},"Ľ":{"ha":706,"x_min":0,"x_max":0,"o":"m 97 0 l 622 0 l 622 125 l 236 125 l 236 944 l 97 944 z m 375 667 l 460 667 l 514 833 l 514 958 l 375 958 l 375 833 l 417 833 z "},"Ļ":{"ha":706,"x_min":0,"x_max":0,"o":"m 97 0 l 622 0 l 622 125 l 236 125 l 236 944 l 97 944 z m 297 -250 l 368 -250 l 422 -153 l 422 -56 l 297 -56 l 297 -153 l 339 -153 z "},"Ł":{"ha":797,"x_min":0,"x_max":0,"o":"m 203 0 l 728 0 l 728 125 l 342 125 l 342 432 l 517 525 l 517 682 l 342 589 l 342 944 l 203 944 l 203 514 l 83 450 l 83 293 l 203 357 z "},"M":{"ha":1214,"x_min":0,"x_max":0,"o":"m 236 944 l 97 944 l 97 0 l 236 0 l 236 600 l 258 600 l 507 78 l 707 78 l 956 600 l 978 600 l 978 0 l 1117 0 l 1117 944 l 978 944 l 618 200 l 596 200 z "},"N":{"ha":944,"x_min":0,"x_max":0,"o":"m 236 944 l 97 944 l 97 0 l 236 0 l 236 675 l 258 675 l 708 0 l 847 0 l 847 944 l 708 944 l 708 269 l 686 269 z "},"Ń":{"ha":944,"x_min":0,"x_max":0,"o":"m 236 944 l 97 944 l 97 0 l 236 0 l 236 675 l 258 675 l 708 0 l 847 0 l 847 944 l 708 944 l 708 269 l 686 269 z m 417 1097 l 540 1097 l 694 1306 l 543 1306 z "},"Ň":{"ha":944,"x_min":0,"x_max":0,"o":"m 236 944 l 97 944 l 97 0 l 236 0 l 236 675 l 258 675 l 708 0 l 847 0 l 847 944 l 708 944 l 708 269 l 686 269 z m 229 1333 l 417 1097 l 528 1097 l 715 1333 l 569 1333 l 476 1194 l 468 1194 l 375 1333 z "},"Ņ":{"ha":944,"x_min":0,"x_max":0,"o":"m 236 944 l 97 944 l 97 0 l 236 0 l 236 675 l 258 675 l 708 0 l 847 0 l 847 944 l 708 944 l 708 269 l 686 269 z m 410 -250 l 481 -250 l 535 -153 l 535 -56 l 410 -56 l 410 -153 l 451 -153 z "},"Ŋ":{"ha":944,"x_min":0,"x_max":0,"o":"m 708 944 l 708 269 l 686 269 l 236 944 l 97 944 l 97 0 l 236 0 l 236 675 l 258 675 l 708 0 l 708 -97 l 472 -97 l 472 -222 l 847 -222 l 847 944 z "},"Ñ":{"ha":944,"x_min":0,"x_max":0,"o":"m 236 944 l 97 944 l 97 0 l 236 0 l 236 675 l 258 675 l 708 0 l 847 0 l 847 944 l 708 944 l 708 269 l 686 269 z m 213 1111 l 324 1111 b 379 1194 324 1167 333 1194 b 565 1111 450 1194 453 1111 b 732 1306 708 1111 732 1236 l 621 1306 b 565 1222 621 1250 611 1222 b 379 1306 494 1222 492 1306 b 213 1111 236 1306 213 1181 z "},"O":{"ha":1061,"x_min":0,"x_max":0,"o":"m 531 -14 b 992 472 819 -14 992 194 b 531 958 992 750 819 958 b 69 472 242 958 69 750 b 531 -14 69 194 242 -14 z m 208 472 b 531 833 208 738 344 833 b 853 472 715 833 853 738 b 531 111 853 207 715 111 b 208 472 344 111 208 207 z "},"Ó":{"ha":1061,"x_min":0,"x_max":0,"o":"m 531 -14 b 992 472 819 -14 992 194 b 531 958 992 750 819 958 b 69 472 242 958 69 750 b 531 -14 69 194 242 -14 z m 208 472 b 531 833 208 738 344 833 b 853 472 715 833 853 738 b 531 111 853 207 715 111 b 208 472 344 111 208 207 z m 475 1097 l 599 1097 l 753 1306 l 601 1306 z "},"Ô":{"ha":1061,"x_min":0,"x_max":0,"o":"m 531 -14 b 992 472 819 -14 992 194 b 531 958 992 750 819 958 b 69 472 242 958 69 750 b 531 -14 69 194 242 -14 z m 208 472 b 531 833 208 738 344 833 b 853 472 715 833 853 738 b 531 111 853 207 715 111 b 208 472 344 111 208 207 z m 288 1083 l 433 1083 l 526 1222 l 535 1222 l 628 1083 l 774 1083 l 586 1319 l 475 1319 z "},"Ö":{"ha":1061,"x_min":0,"x_max":0,"o":"m 531 -14 b 992 472 819 -14 992 194 b 531 958 992 750 819 958 b 69 472 242 958 69 750 b 531 -14 69 194 242 -14 z m 208 472 b 531 833 208 738 344 833 b 853 472 715 833 853 738 b 531 111 853 207 715 111 b 208 472 344 111 208 207 z m 336 1097 l 475 1097 l 475 1222 l 336 1222 z m 586 1097 l 725 1097 l 725 1222 l 586 1222 z "},"Ò":{"ha":1061,"x_min":0,"x_max":0,"o":"m 531 -14 b 992 472 819 -14 992 194 b 531 958 992 750 819 958 b 69 472 242 958 69 750 b 531 -14 69 194 242 -14 z m 208 472 b 531 833 208 738 344 833 b 853 472 715 833 853 738 b 531 111 853 207 715 111 b 208 472 344 111 208 207 z m 322 1306 l 476 1097 l 600 1097 l 474 1306 z "},"Ő":{"ha":1061,"x_min":0,"x_max":0,"o":"m 531 -14 b 992 472 819 -14 992 194 b 531 958 992 750 819 958 b 69 472 242 958 69 750 b 531 -14 69 194 242 -14 z m 208 472 b 531 833 208 738 344 833 b 853 472 715 833 853 738 b 531 111 853 207 715 111 b 208 472 344 111 208 207 z m 350 1097 l 474 1097 l 628 1306 l 476 1306 z m 586 1097 l 710 1097 l 864 1306 l 713 1306 z "},"Ō":{"ha":1061,"x_min":0,"x_max":0,"o":"m 531 -14 b 992 472 819 -14 992 194 b 531 958 992 750 819 958 b 69 472 242 958 69 750 b 531 -14 69 194 242 -14 z m 208 472 b 531 833 208 738 344 833 b 853 472 715 833 853 738 b 531 111 853 207 715 111 b 208 472 344 111 208 207 z m 314 1125 l 747 1125 l 747 1236 l 314 1236 z "},"Ø":{"ha":1089,"x_min":0,"x_max":0,"o":"m 906 944 l 831 868 b 544 958 757 925 660 958 b 83 472 256 958 83 750 b 164 179 83 361 111 260 l 83 97 l 183 0 l 258 76 b 544 -14 332 19 429 -14 b 1006 472 833 -14 1006 194 b 925 765 1006 583 978 685 l 1006 847 z m 222 472 b 544 833 222 738 358 833 b 744 778 621 833 690 817 l 257 276 b 222 472 235 328 222 392 z m 344 167 l 832 668 b 867 472 854 617 867 553 b 544 111 867 207 729 111 b 344 167 467 111 399 128 z "},"Õ":{"ha":1061,"x_min":0,"x_max":0,"o":"m 531 -14 b 992 472 819 -14 992 194 b 531 958 992 750 819 958 b 69 472 242 958 69 750 b 531 -14 69 194 242 -14 z m 208 472 b 531 833 208 738 344 833 b 853 472 715 833 853 738 b 531 111 853 207 715 111 b 208 472 344 111 208 207 z m 271 1111 l 382 1111 b 438 1194 382 1167 392 1194 b 624 1111 508 1194 511 1111 b 790 1306 767 1111 790 1236 l 679 1306 b 624 1222 679 1250 669 1222 b 438 1306 553 1222 550 1306 b 271 1111 294 1306 271 1181 z "},"Œ":{"ha":1531,"x_min":0,"x_max":0,"o":"m 531 -14 b 853 108 665 -14 775 32 l 853 0 l 1461 0 l 1461 125 l 992 125 l 992 424 l 1350 424 l 1350 549 l 992 549 l 992 819 l 1461 819 l 1461 944 l 853 944 l 853 836 b 531 958 775 913 665 958 b 69 472 242 958 69 750 b 531 -14 69 194 242 -14 z m 208 472 b 531 833 208 738 344 833 b 853 472 715 833 853 738 b 531 111 853 207 715 111 b 208 472 344 111 208 207 z "},"P":{"ha":874,"x_min":0,"x_max":0,"o":"m 236 282 l 422 282 b 790 614 722 282 790 415 b 422 944 790 813 722 944 l 97 944 l 97 0 l 236 0 z m 236 407 l 236 819 l 422 819 b 651 614 611 819 651 771 b 422 407 651 461 611 407 z "},"Þ":{"ha":874,"x_min":0,"x_max":0,"o":"m 236 171 l 422 171 b 790 503 722 171 790 304 b 422 833 790 701 722 833 l 236 833 l 236 944 l 97 944 l 97 0 l 236 0 z m 236 296 l 236 708 l 422 708 b 651 503 611 708 651 660 b 422 296 651 350 611 296 z "},"Q":{"ha":1089,"x_min":0,"x_max":0,"o":"m 571 343 l 713 154 b 531 111 661 125 599 111 b 208 472 344 111 208 207 b 531 833 208 738 344 833 b 853 472 715 833 853 738 b 808 258 853 382 838 311 l 682 426 z m 69 472 b 531 -14 69 194 242 -14 b 788 56 631 -14 717 11 l 894 -87 l 1006 -4 l 890 150 b 992 472 956 233 992 346 b 531 958 992 750 819 958 b 69 472 242 958 69 750 z "},"R":{"ha":874,"x_min":0,"x_max":0,"o":"m 790 0 l 790 375 l 514 375 l 514 397 b 776 642 722 413 776 489 b 408 944 776 813 708 944 l 97 944 l 97 0 l 236 0 l 236 317 l 651 317 l 651 0 z m 236 442 l 236 819 l 408 819 b 638 628 597 819 638 771 b 408 442 638 489 597 442 z "},"Ŕ":{"ha":874,"x_min":0,"x_max":0,"o":"m 790 0 l 790 375 l 514 375 l 514 397 b 776 642 722 413 776 489 b 408 944 776 813 708 944 l 97 944 l 97 0 l 236 0 l 236 317 l 651 317 l 651 0 z m 236 442 l 236 819 l 408 819 b 638 628 597 819 638 771 b 408 442 638 489 597 442 z m 382 1097 l 506 1097 l 660 1306 l 508 1306 z "},"Ř":{"ha":874,"x_min":0,"x_max":0,"o":"m 790 0 l 790 375 l 514 375 l 514 397 b 776 642 722 413 776 489 b 408 944 776 813 708 944 l 97 944 l 97 0 l 236 0 l 236 317 l 651 317 l 651 0 z m 194 1333 l 382 1097 l 493 1097 l 681 1333 l 535 1333 l 442 1194 l 433 1194 l 340 1333 z m 236 442 l 236 819 l 408 819 b 638 628 597 819 638 771 b 408 442 638 489 597 442 z "},"Ŗ":{"ha":874,"x_min":0,"x_max":0,"o":"m 790 0 l 790 375 l 514 375 l 514 397 b 776 642 722 413 776 489 b 408 944 776 813 708 944 l 97 944 l 97 0 l 236 0 l 236 317 l 651 317 l 651 0 z m 236 442 l 236 819 l 408 819 b 638 628 597 819 638 771 b 408 442 638 489 597 442 z m 379 -250 l 450 -250 l 504 -153 l 504 -56 l 379 -56 l 379 -153 l 421 -153 z "},"S":{"ha":922,"x_min":0,"x_max":0,"o":"m 83 247 l 83 110 b 483 -14 179 36 350 -14 b 839 254 704 -14 839 61 b 471 549 839 436 738 488 b 236 701 308 586 236 617 b 415 833 236 800 304 833 b 764 754 504 833 625 803 l 764 879 b 433 958 671 925 546 958 b 97 706 232 958 97 886 b 442 424 97 558 171 486 b 700 257 601 388 700 360 b 483 111 700 138 607 111 b 83 247 358 111 214 158 z "},"Ś":{"ha":922,"x_min":0,"x_max":0,"o":"m 83 247 l 83 110 b 483 -14 179 36 350 -14 b 839 254 704 -14 839 61 b 471 549 839 436 738 488 b 236 701 308 586 236 617 b 415 833 236 800 304 833 b 764 754 504 833 625 803 l 764 879 b 433 958 671 925 546 958 b 97 706 232 958 97 886 b 442 424 97 558 171 486 b 700 257 601 388 700 360 b 483 111 700 138 607 111 b 83 247 358 111 214 158 z m 424 1097 l 547 1097 l 701 1306 l 550 1306 z "},"Š":{"ha":922,"x_min":0,"x_max":0,"o":"m 83 247 l 83 110 b 483 -14 179 36 350 -14 b 839 254 704 -14 839 61 b 471 549 839 436 738 488 b 236 701 308 586 236 617 b 415 833 236 800 304 833 b 764 754 504 833 625 803 l 764 879 b 433 958 671 925 546 958 b 97 706 232 958 97 886 b 442 424 97 558 171 486 b 700 257 601 388 700 360 b 483 111 700 138 607 111 b 83 247 358 111 214 158 z m 236 1333 l 424 1097 l 535 1097 l 722 1333 l 576 1333 l 483 1194 l 475 1194 l 382 1333 z "},"Ş":{"ha":922,"x_min":0,"x_max":0,"o":"m 83 247 l 83 110 b 436 -12 168 44 313 -3 l 418 -42 b 372 -139 535 -64 507 -167 l 372 -222 b 496 -42 614 -258 665 -75 l 503 -14 b 839 254 711 -10 839 67 b 471 549 839 436 738 488 b 236 701 308 586 236 617 b 415 833 236 800 304 833 b 764 754 504 833 625 803 l 764 879 b 433 958 671 925 546 958 b 97 706 232 958 97 886 b 442 424 97 558 171 486 b 700 257 601 388 700 360 b 483 111 700 138 607 111 b 83 247 358 111 214 158 z "},"Ș":{"ha":922,"x_min":0,"x_max":0,"o":"m 83 247 l 83 110 b 483 -14 179 36 350 -14 b 839 254 704 -14 839 61 b 471 549 839 436 738 488 b 236 701 308 586 236 617 b 415 833 236 800 304 833 b 764 754 504 833 625 803 l 764 879 b 433 958 671 925 546 958 b 97 706 232 958 97 886 b 442 424 97 558 171 486 b 700 257 601 388 700 360 b 483 111 700 138 607 111 b 83 247 358 111 214 158 z m 417 -250 l 488 -250 l 542 -153 l 542 -56 l 417 -56 l 417 -153 l 458 -153 z "},"T":{"ha":886,"x_min":0,"x_max":0,"o":"m 83 819 l 374 819 l 374 0 l 513 0 l 513 819 l 803 819 l 803 944 l 83 944 z "},"Ŧ":{"ha":886,"x_min":0,"x_max":0,"o":"m 83 819 l 374 819 l 374 542 l 226 542 l 226 403 l 374 403 l 374 0 l 513 0 l 513 403 l 660 403 l 660 542 l 513 542 l 513 819 l 803 819 l 803 944 l 83 944 z "},"Ť":{"ha":886,"x_min":0,"x_max":0,"o":"m 83 819 l 374 819 l 374 0 l 513 0 l 513 819 l 803 819 l 803 944 l 83 944 z m 200 1333 l 388 1097 l 499 1097 l 686 1333 l 540 1333 l 447 1194 l 439 1194 l 346 1333 z "},"Ţ":{"ha":886,"x_min":0,"x_max":0,"o":"m 83 819 l 374 819 l 374 0 l 408 0 l 382 -42 b 336 -139 499 -64 471 -167 l 336 -222 b 460 -42 578 -258 629 -75 l 469 0 l 513 0 l 513 819 l 803 819 l 803 944 l 83 944 z "},"Ț":{"ha":886,"x_min":0,"x_max":0,"o":"m 83 819 l 374 819 l 374 0 l 513 0 l 513 819 l 803 819 l 803 944 l 83 944 z m 381 -250 l 451 -250 l 506 -153 l 506 -56 l 381 -56 l 381 -153 l 422 -153 z "},"U":{"ha":928,"x_min":0,"x_max":0,"o":"m 844 319 l 844 944 l 706 944 l 706 319 b 464 111 706 167 656 111 b 222 319 272 111 222 167 l 222 944 l 83 944 l 83 319 b 464 -14 83 74 218 -14 b 844 319 710 -14 844 74 z "},"Ú":{"ha":928,"x_min":0,"x_max":0,"o":"m 844 319 l 844 944 l 706 944 l 706 319 b 464 111 706 167 656 111 b 222 319 272 111 222 167 l 222 944 l 83 944 l 83 319 b 464 -14 83 74 218 -14 b 844 319 710 -14 844 74 z m 408 1097 l 532 1097 l 686 1306 l 535 1306 z "},"Û":{"ha":928,"x_min":0,"x_max":0,"o":"m 844 319 l 844 944 l 706 944 l 706 319 b 464 111 706 167 656 111 b 222 319 272 111 222 167 l 222 944 l 83 944 l 83 319 b 464 -14 83 74 218 -14 b 844 319 710 -14 844 74 z m 221 1083 l 367 1083 l 460 1222 l 468 1222 l 561 1083 l 707 1083 l 519 1319 l 408 1319 z "},"Ü":{"ha":928,"x_min":0,"x_max":0,"o":"m 844 319 l 844 944 l 706 944 l 706 319 b 464 111 706 167 656 111 b 222 319 272 111 222 167 l 222 944 l 83 944 l 83 319 b 464 -14 83 74 218 -14 b 844 319 710 -14 844 74 z m 269 1097 l 408 1097 l 408 1222 l 269 1222 z m 519 1097 l 658 1097 l 658 1222 l 519 1222 z "},"Ù":{"ha":928,"x_min":0,"x_max":0,"o":"m 844 319 l 844 944 l 706 944 l 706 319 b 464 111 706 167 656 111 b 222 319 272 111 222 167 l 222 944 l 83 944 l 83 319 b 464 -14 83 74 218 -14 b 844 319 710 -14 844 74 z m 256 1306 l 410 1097 l 533 1097 l 407 1306 z "},"Ű":{"ha":928,"x_min":0,"x_max":0,"o":"m 844 319 l 844 944 l 706 944 l 706 319 b 464 111 706 167 656 111 b 222 319 272 111 222 167 l 222 944 l 83 944 l 83 319 b 464 -14 83 74 218 -14 b 844 319 710 -14 844 74 z m 283 1097 l 407 1097 l 561 1306 l 410 1306 z m 519 1097 l 643 1097 l 797 1306 l 646 1306 z "},"Ū":{"ha":928,"x_min":0,"x_max":0,"o":"m 844 319 l 844 944 l 706 944 l 706 319 b 464 111 706 167 656 111 b 222 319 272 111 222 167 l 222 944 l 83 944 l 83 319 b 464 -14 83 74 218 -14 b 844 319 710 -14 844 74 z m 247 1125 l 681 1125 l 681 1236 l 247 1236 z "},"Ų":{"ha":928,"x_min":0,"x_max":0,"o":"m 844 319 l 844 944 l 706 944 l 706 319 b 464 111 706 167 656 111 b 222 319 272 111 222 167 l 222 944 l 83 944 l 83 319 b 464 -14 83 74 218 -14 l 497 -14 b 706 -222 407 -112 447 -260 l 706 -139 b 599 -3 511 -165 544 -74 b 844 319 758 28 844 122 z "},"Ů":{"ha":928,"x_min":0,"x_max":0,"o":"m 844 319 l 844 944 l 706 944 l 706 319 b 464 111 706 167 656 111 b 222 319 272 111 222 167 l 222 944 l 83 944 l 83 319 b 464 -14 83 74 218 -14 b 844 319 710 -14 844 74 z m 283 1236 b 464 1069 283 1149 349 1069 b 644 1236 578 1069 644 1149 b 464 1403 644 1324 578 1403 b 283 1236 349 1403 283 1324 z m 394 1236 b 464 1292 394 1275 418 1292 b 533 1236 510 1292 533 1275 b 464 1181 533 1197 510 1181 b 394 1236 418 1181 394 1197 z "},"V":{"ha":981,"x_min":0,"x_max":0,"o":"m 229 944 l 83 944 l 381 0 l 600 0 l 897 944 l 751 944 l 501 129 l 479 129 z "},"W":{"ha":1589,"x_min":0,"x_max":0,"o":"m 565 0 l 783 808 l 806 808 l 1024 0 l 1251 0 l 1506 944 l 1361 944 l 1149 136 l 1126 136 l 910 944 l 679 944 l 463 136 l 440 136 l 228 944 l 83 944 l 338 0 z "},"Ẃ":{"ha":1589,"x_min":0,"x_max":0,"o":"m 565 0 l 783 808 l 806 808 l 1024 0 l 1251 0 l 1506 944 l 1361 944 l 1149 136 l 1126 136 l 910 944 l 679 944 l 463 136 l 440 136 l 228 944 l 83 944 l 338 0 z m 739 1097 l 863 1097 l 1017 1306 l 865 1306 z "},"Ŵ":{"ha":1589,"x_min":0,"x_max":0,"o":"m 565 0 l 783 808 l 806 808 l 1024 0 l 1251 0 l 1506 944 l 1361 944 l 1149 136 l 1126 136 l 910 944 l 679 944 l 463 136 l 440 136 l 228 944 l 83 944 l 338 0 z m 551 1083 l 697 1083 l 790 1222 l 799 1222 l 892 1083 l 1038 1083 l 850 1319 l 739 1319 z "},"Ẅ":{"ha":1589,"x_min":0,"x_max":0,"o":"m 565 0 l 783 808 l 806 808 l 1024 0 l 1251 0 l 1506 944 l 1361 944 l 1149 136 l 1126 136 l 910 944 l 679 944 l 463 136 l 440 136 l 228 944 l 83 944 l 338 0 z m 600 1097 l 739 1097 l 739 1222 l 600 1222 z m 850 1097 l 989 1097 l 989 1222 l 850 1222 z "},"Ẁ":{"ha":1589,"x_min":0,"x_max":0,"o":"m 565 0 l 783 808 l 806 808 l 1024 0 l 1251 0 l 1506 944 l 1361 944 l 1149 136 l 1126 136 l 910 944 l 679 944 l 463 136 l 440 136 l 228 944 l 83 944 l 338 0 z m 586 1306 l 740 1097 l 864 1097 l 738 1306 z "},"X":{"ha":997,"x_min":0,"x_max":0,"o":"m 746 944 l 503 576 l 494 576 l 251 944 l 83 944 l 403 472 l 83 0 l 251 0 l 494 368 l 503 368 l 746 0 l 914 0 l 594 472 l 914 944 z "},"Y":{"ha":997,"x_min":0,"x_max":0,"o":"m 751 944 l 503 521 l 494 521 l 246 944 l 83 944 l 429 376 l 431 0 l 568 0 l 568 376 l 914 944 z "},"Ý":{"ha":997,"x_min":0,"x_max":0,"o":"m 751 944 l 503 521 l 494 521 l 246 944 l 83 944 l 429 376 l 431 0 l 568 0 l 568 376 l 914 944 z m 443 1097 l 567 1097 l 721 1306 l 569 1306 z "},"Ŷ":{"ha":997,"x_min":0,"x_max":0,"o":"m 751 944 l 503 521 l 494 521 l 246 944 l 83 944 l 429 376 l 431 0 l 568 0 l 568 376 l 914 944 z m 256 1083 l 401 1083 l 494 1222 l 503 1222 l 596 1083 l 742 1083 l 554 1319 l 443 1319 z "},"Ÿ":{"ha":997,"x_min":0,"x_max":0,"o":"m 751 944 l 503 521 l 494 521 l 246 944 l 83 944 l 429 376 l 431 0 l 568 0 l 568 376 l 914 944 z m 304 1097 l 443 1097 l 443 1222 l 304 1222 z m 554 1097 l 693 1097 l 693 1222 l 554 1222 z "},"Ỳ":{"ha":997,"x_min":0,"x_max":0,"o":"m 751 944 l 503 521 l 494 521 l 246 944 l 83 944 l 429 376 l 431 0 l 568 0 l 568 376 l 914 944 z m 290 1306 l 444 1097 l 568 1097 l 442 1306 z "},"Z":{"ha":924,"x_min":0,"x_max":0,"o":"m 840 125 l 285 125 l 840 856 l 840 944 l 83 944 l 83 819 l 639 819 l 83 89 l 83 0 l 840 0 z "},"Ź":{"ha":924,"x_min":0,"x_max":0,"o":"m 840 125 l 285 125 l 840 856 l 840 944 l 83 944 l 83 819 l 639 819 l 83 89 l 83 0 l 840 0 z m 407 1097 l 531 1097 l 685 1306 l 533 1306 z "},"Ž":{"ha":924,"x_min":0,"x_max":0,"o":"m 840 125 l 285 125 l 840 856 l 840 944 l 83 944 l 83 819 l 639 819 l 83 89 l 83 0 l 840 0 z m 219 1333 l 407 1097 l 518 1097 l 706 1333 l 560 1333 l 467 1194 l 458 1194 l 365 1333 z "},"Ż":{"ha":924,"x_min":0,"x_max":0,"o":"m 840 125 l 285 125 l 840 856 l 840 944 l 83 944 l 83 819 l 639 819 l 83 89 l 83 0 l 840 0 z m 393 1097 l 532 1097 l 532 1222 l 393 1222 z "},"a":{"ha":817,"x_min":0,"x_max":0,"o":"m 318 472 b 69 229 149 472 69 350 b 318 -14 69 108 149 -14 b 511 69 415 -14 469 14 l 511 0 l 733 0 l 733 139 l 650 139 l 650 694 l 150 694 l 150 569 l 511 569 l 511 389 b 318 472 469 444 415 472 z m 208 229 b 360 347 208 299 258 347 b 511 229 461 347 511 299 b 360 111 511 160 461 111 b 208 229 258 111 208 160 z "},"á":{"ha":817,"x_min":0,"x_max":0,"o":"m 318 472 b 69 229 149 472 69 350 b 318 -14 69 108 149 -14 b 511 69 415 -14 469 14 l 511 0 l 733 0 l 733 139 l 650 139 l 650 694 l 150 694 l 150 569 l 511 569 l 511 389 b 318 472 469 444 415 472 z m 208 229 b 360 347 208 299 258 347 b 511 229 461 347 511 299 b 360 111 511 160 461 111 b 208 229 258 111 208 160 z m 346 847 l 469 847 l 624 1056 l 472 1056 z "},"ă":{"ha":817,"x_min":0,"x_max":0,"o":"m 318 472 b 69 229 149 472 69 350 b 318 -14 69 108 149 -14 b 511 69 415 -14 469 14 l 511 0 l 733 0 l 733 139 l 650 139 l 650 694 l 150 694 l 150 569 l 511 569 l 511 389 b 318 472 469 444 415 472 z m 200 1042 b 401 833 200 875 297 833 b 603 1042 506 833 603 878 l 492 1042 b 401 944 492 958 450 944 b 311 1042 353 944 311 958 z m 208 229 b 360 347 208 299 258 347 b 511 229 461 347 511 299 b 360 111 511 160 461 111 b 208 229 258 111 208 160 z "},"â":{"ha":817,"x_min":0,"x_max":0,"o":"m 318 472 b 69 229 149 472 69 350 b 318 -14 69 108 149 -14 b 511 69 415 -14 469 14 l 511 0 l 733 0 l 733 139 l 650 139 l 650 694 l 150 694 l 150 569 l 511 569 l 511 389 b 318 472 469 444 415 472 z m 158 833 l 304 833 l 397 972 l 406 972 l 499 833 l 644 833 l 457 1069 l 346 1069 z m 208 229 b 360 347 208 299 258 347 b 511 229 461 347 511 299 b 360 111 511 160 461 111 b 208 229 258 111 208 160 z "},"ä":{"ha":817,"x_min":0,"x_max":0,"o":"m 318 486 b 69 236 149 486 69 364 b 318 -14 69 108 149 -14 b 511 69 415 -14 469 14 l 511 0 l 733 0 l 733 139 l 650 139 l 650 694 l 150 694 l 150 569 l 511 569 l 511 403 b 318 486 469 458 415 486 z m 207 847 l 346 847 l 346 972 l 207 972 z m 208 236 b 360 361 208 313 258 361 b 511 236 461 361 511 313 b 360 111 511 160 461 111 b 208 236 258 111 208 160 z m 457 847 l 596 847 l 596 972 l 457 972 z "},"à":{"ha":817,"x_min":0,"x_max":0,"o":"m 318 472 b 69 229 149 472 69 350 b 318 -14 69 108 149 -14 b 511 69 415 -14 469 14 l 511 0 l 733 0 l 733 139 l 650 139 l 650 694 l 150 694 l 150 569 l 511 569 l 511 389 b 318 472 469 444 415 472 z m 193 1056 l 347 847 l 471 847 l 344 1056 z m 208 229 b 360 347 208 299 258 347 b 511 229 461 347 511 299 b 360 111 511 160 461 111 b 208 229 258 111 208 160 z "},"ā":{"ha":817,"x_min":0,"x_max":0,"o":"m 318 472 b 69 229 149 472 69 350 b 318 -14 69 108 149 -14 b 511 69 415 -14 469 14 l 511 0 l 733 0 l 733 139 l 650 139 l 650 694 l 150 694 l 150 569 l 511 569 l 511 389 b 318 472 469 444 415 472 z m 185 875 l 618 875 l 618 986 l 185 986 z m 208 229 b 360 347 208 299 258 347 b 511 229 461 347 511 299 b 360 111 511 160 461 111 b 208 229 258 111 208 160 z "},"ą":{"ha":817,"x_min":0,"x_max":0,"o":"m 318 472 b 69 229 149 472 69 350 b 318 -14 69 108 149 -14 b 511 69 415 -14 469 14 l 511 0 l 650 0 b 828 -236 524 -96 544 -278 l 828 -153 b 733 0 618 -181 674 -72 l 733 139 l 650 139 l 650 694 l 150 694 l 150 569 l 511 569 l 511 389 b 318 472 469 444 415 472 z m 208 229 b 360 347 208 299 258 347 b 511 229 461 347 511 299 b 360 111 511 160 461 111 b 208 229 258 111 208 160 z "},"å":{"ha":817,"x_min":0,"x_max":0,"o":"m 318 472 b 69 229 149 472 69 350 b 318 -14 69 108 149 -14 b 511 69 415 -14 469 14 l 511 0 l 733 0 l 733 139 l 650 139 l 650 694 l 150 694 l 150 569 l 511 569 l 511 389 b 318 472 469 444 415 472 z m 208 229 b 360 347 208 299 258 347 b 511 229 461 347 511 299 b 360 111 511 160 461 111 b 208 229 258 111 208 160 z m 221 986 b 401 819 221 899 286 819 b 582 986 515 819 582 899 b 401 1153 582 1074 515 1153 b 221 986 286 1153 221 1074 z m 332 986 b 401 1042 332 1025 356 1042 b 471 986 447 1042 471 1025 b 401 931 471 947 447 931 b 332 986 356 931 332 947 z "},"ã":{"ha":817,"x_min":0,"x_max":0,"o":"m 318 472 b 69 229 149 472 69 350 b 318 -14 69 108 149 -14 b 511 69 415 -14 469 14 l 511 0 l 733 0 l 733 139 l 650 139 l 650 694 l 150 694 l 150 569 l 511 569 l 511 389 b 318 472 469 444 415 472 z m 142 861 l 253 861 b 308 944 253 917 263 944 b 494 861 379 944 382 861 b 661 1056 638 861 661 986 l 550 1056 b 494 972 550 1000 540 972 b 308 1056 424 972 421 1056 b 142 861 165 1056 142 931 z m 208 229 b 360 347 208 299 258 347 b 511 229 461 347 511 299 b 360 111 511 160 461 111 b 208 229 258 111 208 160 z "},"æ":{"ha":1208,"x_min":0,"x_max":0,"o":"m 332 486 b 83 236 163 486 83 350 b 346 -14 83 122 163 -14 b 586 113 426 -14 519 8 b 878 -14 635 40 722 -14 b 1078 14 931 -14 969 -14 l 1078 136 b 878 111 988 111 933 111 b 667 285 715 111 676 188 l 1125 285 l 1125 361 b 825 708 1125 579 1039 708 b 601 618 722 708 650 676 l 588 694 l 164 694 l 164 556 l 474 556 l 499 422 b 332 486 460 463 410 486 z m 222 236 b 374 347 222 313 272 347 b 525 236 475 347 525 313 b 374 125 525 160 475 125 b 222 236 272 125 222 160 z m 664 410 b 825 583 671 522 718 583 b 986 410 938 583 983 531 z "},"b":{"ha":817,"x_min":0,"x_max":0,"o":"m 97 972 l 97 0 l 236 0 l 236 83 b 443 -14 278 24 346 -14 b 747 347 668 -14 747 143 b 443 708 747 551 668 708 b 236 611 346 708 278 671 l 236 972 z m 236 347 b 422 583 236 514 286 583 b 608 347 558 583 608 514 b 422 111 608 181 558 111 b 236 347 286 111 236 181 z "},"c":{"ha":753,"x_min":0,"x_max":0,"o":"m 69 347 b 381 -14 69 129 176 -14 b 669 264 563 -14 669 99 l 531 264 b 388 111 525 178 496 111 b 208 347 258 111 208 167 b 388 583 208 528 258 583 b 531 431 496 583 525 517 l 669 431 b 381 708 669 596 563 708 b 69 347 176 708 69 565 z "},"ć":{"ha":753,"x_min":0,"x_max":0,"o":"m 69 347 b 381 -14 69 129 176 -14 b 669 264 563 -14 669 99 l 531 264 b 388 111 525 178 496 111 b 208 347 258 111 208 167 b 388 583 208 528 258 583 b 531 431 496 583 525 517 l 669 431 b 381 708 669 596 563 708 b 69 347 176 708 69 565 z m 314 847 l 438 847 l 592 1056 l 440 1056 z "},"č":{"ha":753,"x_min":0,"x_max":0,"o":"m 69 347 b 381 -14 69 129 176 -14 b 669 264 563 -14 669 99 l 531 264 b 388 111 525 178 496 111 b 208 347 258 111 208 167 b 388 583 208 528 258 583 b 531 431 496 583 525 517 l 669 431 b 381 708 669 596 563 708 b 69 347 176 708 69 565 z m 126 1083 l 314 847 l 425 847 l 613 1083 l 467 1083 l 374 944 l 365 944 l 272 1083 z "},"ç":{"ha":753,"x_min":0,"x_max":0,"o":"m 69 347 b 328 -11 69 149 158 13 l 308 -42 b 263 -139 425 -64 397 -167 l 263 -222 b 386 -42 504 -258 556 -75 l 393 -14 b 669 264 567 -8 669 103 l 531 264 b 388 111 525 178 496 111 b 208 347 258 111 208 167 b 388 583 208 528 258 583 b 531 431 496 583 525 517 l 669 431 b 381 708 669 596 563 708 b 69 347 176 708 69 565 z "},"ċ":{"ha":753,"x_min":0,"x_max":0,"o":"m 69 347 b 381 -14 69 129 176 -14 b 669 264 563 -14 669 99 l 531 264 b 388 111 525 178 496 111 b 208 347 258 111 208 167 b 388 583 208 528 258 583 b 531 431 496 583 525 517 l 669 431 b 381 708 669 596 563 708 b 69 347 176 708 69 565 z m 300 847 l 439 847 l 439 972 l 300 972 z "},"d":{"ha":817,"x_min":0,"x_max":0,"o":"m 719 972 l 581 972 l 581 611 b 374 708 539 671 471 708 b 69 347 149 708 69 551 b 374 -14 69 143 149 -14 b 581 83 471 -14 539 24 l 581 0 l 719 0 z m 208 347 b 394 583 208 514 258 583 b 581 347 531 583 581 514 b 394 111 581 181 531 111 b 208 347 258 111 208 181 z "},"ð":{"ha":844,"x_min":0,"x_max":0,"o":"m 197 751 l 267 653 l 440 728 b 563 586 493 686 533 639 b 386 631 513 614 453 631 b 83 306 215 631 83 519 b 429 -14 83 56 261 -14 b 761 347 597 -14 761 97 b 582 789 761 532 697 678 l 713 846 l 643 944 l 479 874 b 283 972 421 911 356 944 l 224 847 b 321 804 258 833 290 819 z m 222 306 b 400 506 222 421 268 506 b 622 319 550 506 622 456 b 429 111 622 226 583 111 b 222 306 261 111 222 190 z "},"ď":{"ha":1050,"x_min":0,"x_max":0,"o":"m 719 972 l 581 972 l 581 611 b 374 708 539 671 471 708 b 69 347 149 708 69 551 b 374 -14 69 143 149 -14 b 581 83 471 -14 539 24 l 581 0 l 719 0 z m 208 347 b 394 583 208 514 258 583 b 581 347 531 583 581 514 b 394 111 581 181 531 111 b 208 347 258 111 208 181 z m 828 667 l 913 667 l 967 833 l 967 958 l 828 958 l 828 833 l 869 833 z "},"đ":{"ha":900,"x_min":0,"x_max":0,"o":"m 719 972 l 581 972 l 581 903 l 383 903 l 383 764 l 581 764 l 581 611 b 374 708 539 671 471 708 b 69 347 149 708 69 551 b 374 -14 69 143 149 -14 b 581 83 471 -14 539 24 l 581 0 l 719 0 l 719 764 l 817 764 l 817 903 l 719 903 z m 208 347 b 394 583 208 514 258 583 b 581 347 531 583 581 514 b 394 111 581 181 531 111 b 208 347 258 111 208 181 z "},"e":{"ha":753,"x_min":0,"x_max":0,"o":"m 69 347 b 422 -14 69 210 108 -14 b 622 14 475 -14 514 -14 l 622 136 b 422 111 532 111 478 111 b 211 285 260 111 221 188 l 669 285 l 669 361 b 369 708 669 579 583 708 b 69 347 156 708 69 565 z m 208 410 b 369 583 215 522 263 583 b 531 410 482 583 528 531 z "},"é":{"ha":753,"x_min":0,"x_max":0,"o":"m 69 347 b 422 -14 69 210 108 -14 b 622 14 475 -14 514 -14 l 622 136 b 422 111 532 111 478 111 b 211 285 260 111 221 188 l 669 285 l 669 361 b 369 708 669 579 583 708 b 69 347 156 708 69 565 z m 208 410 b 369 583 215 522 263 583 b 531 410 482 583 528 531 z m 314 847 l 438 847 l 592 1056 l 440 1056 z "},"ě":{"ha":753,"x_min":0,"x_max":0,"o":"m 69 347 b 422 -14 69 210 108 -14 b 622 14 475 -14 514 -14 l 622 136 b 422 111 532 111 478 111 b 211 285 260 111 221 188 l 669 285 l 669 361 b 369 708 669 579 583 708 b 69 347 156 708 69 565 z m 126 1083 l 314 847 l 425 847 l 613 1083 l 467 1083 l 374 944 l 365 944 l 272 1083 z m 208 410 b 369 583 215 522 263 583 b 531 410 482 583 528 531 z "},"ê":{"ha":753,"x_min":0,"x_max":0,"o":"m 69 347 b 422 -14 69 210 108 -14 b 622 14 475 -14 514 -14 l 622 136 b 422 111 532 111 478 111 b 211 285 260 111 221 188 l 669 285 l 669 361 b 369 708 669 579 583 708 b 69 347 156 708 69 565 z m 126 833 l 272 833 l 365 972 l 374 972 l 467 833 l 613 833 l 425 1069 l 314 1069 z m 208 410 b 369 583 215 522 263 583 b 531 410 482 583 528 531 z "},"ë":{"ha":753,"x_min":0,"x_max":0,"o":"m 69 347 b 422 -14 69 210 108 -14 b 622 14 475 -14 514 -14 l 622 136 b 422 111 532 111 478 111 b 211 285 260 111 221 188 l 669 285 l 669 361 b 369 708 669 579 583 708 b 69 347 156 708 69 565 z m 175 847 l 314 847 l 314 972 l 175 972 z m 208 410 b 369 583 215 522 263 583 b 531 410 482 583 528 531 z m 425 847 l 564 847 l 564 972 l 425 972 z "},"ė":{"ha":753,"x_min":0,"x_max":0,"o":"m 69 347 b 422 -14 69 210 108 -14 b 622 14 475 -14 514 -14 l 622 136 b 422 111 532 111 478 111 b 211 285 260 111 221 188 l 669 285 l 669 361 b 369 708 669 579 583 708 b 69 347 156 708 69 565 z m 208 410 b 369 583 215 522 263 583 b 531 410 482 583 528 531 z m 300 847 l 439 847 l 439 972 l 300 972 z "},"è":{"ha":753,"x_min":0,"x_max":0,"o":"m 69 347 b 422 -14 69 210 108 -14 b 622 14 475 -14 514 -14 l 622 136 b 422 111 532 111 478 111 b 211 285 260 111 221 188 l 669 285 l 669 361 b 369 708 669 579 583 708 b 69 347 156 708 69 565 z m 161 1056 l 315 847 l 439 847 l 313 1056 z m 208 410 b 369 583 215 522 263 583 b 531 410 482 583 528 531 z "},"ē":{"ha":753,"x_min":0,"x_max":0,"o":"m 69 347 b 422 -14 69 210 108 -14 b 622 14 475 -14 514 -14 l 622 136 b 422 111 532 111 478 111 b 211 285 260 111 221 188 l 669 285 l 669 361 b 369 708 669 579 583 708 b 69 347 156 708 69 565 z m 153 875 l 586 875 l 586 986 l 153 986 z m 208 410 b 369 583 215 522 263 583 b 531 410 482 583 528 531 z "},"ę":{"ha":753,"x_min":0,"x_max":0,"o":"m 69 347 b 422 -14 69 210 108 -14 b 500 -11 449 -14 471 -14 b 717 -208 421 -110 468 -244 l 717 -125 b 608 11 524 -150 556 -60 l 622 14 l 622 136 b 422 111 532 111 478 111 b 211 285 260 111 221 188 l 669 285 l 669 361 b 369 708 669 579 583 708 b 69 347 156 708 69 565 z m 208 410 b 369 583 215 522 263 583 b 531 410 482 583 528 531 z "},"f":{"ha":600,"x_min":0,"x_max":0,"o":"m 181 972 l 181 694 l 69 694 l 69 569 l 181 569 l 181 0 l 319 0 l 319 569 l 517 569 l 517 694 l 319 694 l 319 847 l 517 847 l 517 972 z "},"g":{"ha":817,"x_min":0,"x_max":0,"o":"m 374 42 b 581 125 471 42 539 79 l 581 -97 l 192 -97 l 192 -222 l 719 -222 l 719 694 l 581 694 l 581 611 b 374 708 539 671 471 708 b 69 375 149 708 69 551 b 374 42 69 199 149 42 z m 208 375 b 394 583 208 514 258 583 b 581 375 531 583 581 514 b 394 167 581 222 531 167 b 208 375 258 167 208 236 z "},"ğ":{"ha":817,"x_min":0,"x_max":0,"o":"m 374 42 b 581 125 471 42 539 79 l 581 -97 l 192 -97 l 192 -222 l 719 -222 l 719 694 l 581 694 l 581 611 b 374 708 539 671 471 708 b 69 375 149 708 69 551 b 374 42 69 199 149 42 z m 193 1042 b 394 833 193 875 290 833 b 596 1042 499 833 596 878 l 485 1042 b 394 944 485 958 443 944 b 304 1042 346 944 304 958 z m 208 375 b 394 583 208 514 258 583 b 581 375 531 583 581 514 b 394 167 581 222 531 167 b 208 375 258 167 208 236 z "},"ģ":{"ha":817,"x_min":0,"x_max":0,"o":"m 374 42 b 581 125 471 42 539 79 l 581 -97 l 192 -97 l 192 -222 l 719 -222 l 719 694 l 581 694 l 581 611 b 374 708 539 671 471 708 b 69 375 149 708 69 551 b 374 42 69 199 149 42 z m 208 375 b 394 583 208 514 258 583 b 581 375 531 583 581 514 b 394 167 581 222 531 167 b 208 375 258 167 208 236 z m 325 861 l 464 861 l 464 986 l 422 986 l 464 1153 l 379 1153 l 325 986 z "},"ġ":{"ha":817,"x_min":0,"x_max":0,"o":"m 374 42 b 581 125 471 42 539 79 l 581 -97 l 192 -97 l 192 -222 l 719 -222 l 719 694 l 581 694 l 581 611 b 374 708 539 671 471 708 b 69 375 149 708 69 551 b 374 42 69 199 149 42 z m 208 375 b 394 583 208 514 258 583 b 581 375 531 583 581 514 b 394 167 581 222 531 167 b 208 375 258 167 208 236 z m 325 847 l 464 847 l 464 972 l 325 972 z "},"h":{"ha":778,"x_min":0,"x_max":0,"o":"m 97 972 l 97 0 l 236 0 l 236 569 l 542 569 l 542 0 l 681 0 l 681 694 l 236 694 l 236 972 z "},"ħ":{"ha":833,"x_min":0,"x_max":0,"o":"m 181 764 l 181 0 l 319 0 l 319 569 l 625 569 l 625 0 l 764 0 l 764 694 l 319 694 l 319 764 l 517 764 l 517 903 l 319 903 l 319 972 l 181 972 l 181 903 l 83 903 l 83 764 z "},"i":{"ha":333,"x_min":0,"x_max":0,"o":"m 97 694 l 97 0 l 236 0 l 236 694 z m 97 833 l 236 833 l 236 972 l 97 972 z "},"ı":{"ha":333,"x_min":0,"x_max":0,"o":"m 97 694 l 97 0 l 236 0 l 236 694 z "},"í":{"ha":333,"x_min":0,"x_max":0,"o":"m 97 694 l 97 0 l 236 0 l 236 694 z m 111 847 l 235 847 l 389 1056 l 238 1056 z "},"î":{"ha":333,"x_min":0,"x_max":0,"o":"m 97 694 l 97 0 l 236 0 l 236 694 z m -76 833 l 69 833 l 163 972 l 171 972 l 264 833 l 410 833 l 222 1069 l 111 1069 z "},"ï":{"ha":333,"x_min":0,"x_max":0,"o":"m 97 694 l 97 0 l 236 0 l 236 694 z m -28 847 l 111 847 l 111 972 l -28 972 z m 222 847 l 361 847 l 361 972 l 222 972 z "},"ì":{"ha":333,"x_min":0,"x_max":0,"o":"m 97 694 l 97 0 l 236 0 l 236 694 z m -42 1056 l 113 847 l 236 847 l 110 1056 z "},"ī":{"ha":333,"x_min":0,"x_max":0,"o":"m 97 694 l 97 0 l 236 0 l 236 694 z m -50 875 l 383 875 l 383 986 l -50 986 z "},"į":{"ha":333,"x_min":0,"x_max":0,"o":"m 97 694 l 97 0 l 153 0 b 331 -236 26 -96 47 -278 l 331 -153 b 236 0 121 -181 176 -72 l 236 694 z m 97 847 l 236 847 l 236 972 l 97 972 z "},"j":{"ha":389,"x_min":0,"x_max":0,"o":"m 153 694 l 153 -97 l 14 -97 l 14 -222 l 292 -222 l 292 694 z m 153 833 l 292 833 l 292 972 l 153 972 z "},"k":{"ha":790,"x_min":0,"x_max":0,"o":"m 97 972 l 97 0 l 236 0 l 236 283 l 344 283 l 539 0 l 707 0 l 469 346 l 707 694 l 539 694 l 344 408 l 236 408 l 236 972 z "},"ķ":{"ha":790,"x_min":0,"x_max":0,"o":"m 97 972 l 97 0 l 236 0 l 236 283 l 344 283 l 539 0 l 707 0 l 469 346 l 707 694 l 539 694 l 344 408 l 236 408 l 236 972 z m 313 -250 l 383 -250 l 438 -153 l 438 -56 l 313 -56 l 313 -153 l 354 -153 z "},"l":{"ha":333,"x_min":0,"x_max":0,"o":"m 97 972 l 97 0 l 236 0 l 236 972 z "},"ĺ":{"ha":333,"x_min":0,"x_max":0,"o":"m 97 972 l 97 0 l 236 0 l 236 972 z m 111 1125 l 235 1125 l 389 1333 l 238 1333 z "},"ľ":{"ha":333,"x_min":0,"x_max":0,"o":"m 97 972 l 97 0 l 236 0 l 236 972 z m -76 1361 l 111 1125 l 222 1125 l 410 1361 l 264 1361 l 171 1222 l 163 1222 l 69 1361 z "},"ļ":{"ha":333,"x_min":0,"x_max":0,"o":"m 97 972 l 97 0 l 236 0 l 236 972 z m 104 -250 l 175 -250 l 229 -153 l 229 -56 l 104 -56 l 104 -153 l 146 -153 z "},"ł":{"ha":600,"x_min":0,"x_max":0,"o":"m 244 972 l 244 536 l 83 450 l 83 293 l 244 379 l 244 0 l 383 0 l 383 454 l 517 525 l 517 682 l 383 611 l 383 972 z "},"m":{"ha":1111,"x_min":0,"x_max":0,"o":"m 97 694 l 97 0 l 236 0 l 236 569 l 486 569 l 486 0 l 625 0 l 625 569 l 875 569 l 875 0 l 1014 0 l 1014 694 z "},"n":{"ha":764,"x_min":0,"x_max":0,"o":"m 83 694 l 83 0 l 222 0 l 222 569 l 528 569 l 528 0 l 667 0 l 667 694 z "},"ń":{"ha":764,"x_min":0,"x_max":0,"o":"m 83 694 l 83 0 l 222 0 l 222 569 l 528 569 l 528 0 l 667 0 l 667 694 z m 319 847 l 443 847 l 597 1056 l 446 1056 z "},"ň":{"ha":764,"x_min":0,"x_max":0,"o":"m 83 694 l 83 0 l 222 0 l 222 569 l 528 569 l 528 0 l 667 0 l 667 694 z m 132 1083 l 319 847 l 431 847 l 618 1083 l 472 1083 l 379 944 l 371 944 l 278 1083 z "},"ņ":{"ha":764,"x_min":0,"x_max":0,"o":"m 83 694 l 83 0 l 222 0 l 222 569 l 528 569 l 528 0 l 667 0 l 667 694 z m 313 -250 l 383 -250 l 438 -153 l 438 -56 l 313 -56 l 313 -153 l 354 -153 z "},"ŋ":{"ha":764,"x_min":0,"x_max":0,"o":"m 667 694 l 83 694 l 83 0 l 222 0 l 222 569 l 528 569 l 528 -97 l 375 -97 l 375 -222 l 667 -222 z "},"ñ":{"ha":764,"x_min":0,"x_max":0,"o":"m 83 694 l 83 0 l 222 0 l 222 569 l 528 569 l 528 0 l 667 0 l 667 694 z m 115 861 l 226 861 b 282 944 226 917 236 944 b 468 861 353 944 356 861 b 635 1056 611 861 635 986 l 524 1056 b 468 972 524 1000 514 972 b 282 1056 397 972 394 1056 b 115 861 139 1056 115 931 z "},"o":{"ha":803,"x_min":0,"x_max":0,"o":"m 401 -14 b 733 347 613 -14 733 129 b 401 708 733 565 613 708 b 69 347 190 708 69 565 b 401 -14 69 129 190 -14 z m 208 347 b 401 583 208 528 258 583 b 594 347 544 583 594 528 b 401 111 594 167 544 111 b 208 347 258 111 208 167 z "},"ó":{"ha":803,"x_min":0,"x_max":0,"o":"m 401 -14 b 733 347 613 -14 733 129 b 401 708 733 565 613 708 b 69 347 190 708 69 565 b 401 -14 69 129 190 -14 z m 208 347 b 401 583 208 528 258 583 b 594 347 544 583 594 528 b 401 111 594 167 544 111 b 208 347 258 111 208 167 z m 346 847 l 469 847 l 624 1056 l 472 1056 z "},"ô":{"ha":803,"x_min":0,"x_max":0,"o":"m 401 -14 b 733 347 613 -14 733 129 b 401 708 733 565 613 708 b 69 347 190 708 69 565 b 401 -14 69 129 190 -14 z m 158 833 l 304 833 l 397 972 l 406 972 l 499 833 l 644 833 l 457 1069 l 346 1069 z m 208 347 b 401 583 208 528 258 583 b 594 347 544 583 594 528 b 401 111 594 167 544 111 b 208 347 258 111 208 167 z "},"ö":{"ha":803,"x_min":0,"x_max":0,"o":"m 401 -14 b 733 347 613 -14 733 129 b 401 708 733 565 613 708 b 69 347 190 708 69 565 b 401 -14 69 129 190 -14 z m 207 847 l 346 847 l 346 972 l 207 972 z m 208 347 b 401 583 208 528 258 583 b 594 347 544 583 594 528 b 401 111 594 167 544 111 b 208 347 258 111 208 167 z m 457 847 l 596 847 l 596 972 l 457 972 z "},"ò":{"ha":803,"x_min":0,"x_max":0,"o":"m 401 -14 b 733 347 613 -14 733 129 b 401 708 733 565 613 708 b 69 347 190 708 69 565 b 401 -14 69 129 190 -14 z m 193 1056 l 347 847 l 471 847 l 344 1056 z m 208 347 b 401 583 208 528 258 583 b 594 347 544 583 594 528 b 401 111 594 167 544 111 b 208 347 258 111 208 167 z "},"ő":{"ha":803,"x_min":0,"x_max":0,"o":"m 401 -14 b 733 347 613 -14 733 129 b 401 708 733 565 613 708 b 69 347 190 708 69 565 b 401 -14 69 129 190 -14 z m 208 347 b 401 583 208 528 258 583 b 594 347 544 583 594 528 b 401 111 594 167 544 111 b 208 347 258 111 208 167 z m 221 847 l 344 847 l 499 1056 l 347 1056 z m 457 847 l 581 847 l 735 1056 l 583 1056 z "},"ō":{"ha":803,"x_min":0,"x_max":0,"o":"m 401 -14 b 733 347 613 -14 733 129 b 401 708 733 565 613 708 b 69 347 190 708 69 565 b 401 -14 69 129 190 -14 z m 185 875 l 618 875 l 618 986 l 185 986 z m 208 347 b 401 583 208 528 258 583 b 594 347 544 583 594 528 b 401 111 594 167 544 111 b 208 347 258 111 208 167 z "},"ø":{"ha":850,"x_min":0,"x_max":0,"o":"m 667 694 l 624 651 b 425 708 572 688 504 708 b 93 347 214 708 93 565 b 135 150 93 272 107 206 l 83 97 l 183 0 l 226 43 b 425 -14 278 7 346 -14 b 757 347 636 -14 757 129 b 715 544 757 422 743 489 l 767 597 z m 232 347 b 425 583 232 528 282 583 b 538 563 472 583 510 578 l 238 256 b 232 347 233 282 232 313 z m 313 132 l 613 439 b 618 347 617 413 618 382 b 425 111 618 167 568 111 b 313 132 378 111 340 117 z "},"õ":{"ha":803,"x_min":0,"x_max":0,"o":"m 401 -14 b 733 347 613 -14 733 129 b 401 708 733 565 613 708 b 69 347 190 708 69 565 b 401 -14 69 129 190 -14 z m 142 861 l 253 861 b 308 944 253 917 263 944 b 494 861 379 944 382 861 b 661 1056 638 861 661 986 l 550 1056 b 494 972 550 1000 540 972 b 308 1056 424 972 421 1056 b 142 861 165 1056 142 931 z m 208 347 b 401 583 208 528 258 583 b 594 347 544 583 594 528 b 401 111 594 167 544 111 b 208 347 258 111 208 167 z "},"œ":{"ha":1278,"x_min":0,"x_max":0,"o":"m 401 -14 b 661 103 517 -14 606 29 b 947 -14 713 36 799 -14 b 1147 14 1000 -14 1039 -14 l 1147 136 b 947 111 1057 111 1003 111 b 736 285 785 111 746 188 l 1194 285 l 1194 361 b 894 708 1194 579 1108 708 b 656 599 782 708 704 668 b 401 708 600 668 513 708 b 69 347 190 708 69 565 b 401 -14 69 129 190 -14 z m 208 347 b 401 583 208 528 258 583 b 594 347 544 583 594 528 b 401 111 594 167 544 111 b 208 347 258 111 208 167 z m 733 410 b 894 583 740 522 788 583 b 1056 410 1007 583 1053 531 z "},"p":{"ha":817,"x_min":0,"x_max":0,"o":"m 97 -222 l 236 -222 l 236 83 b 443 -14 278 24 346 -14 b 747 347 668 -14 747 143 b 443 708 747 551 668 708 b 236 611 346 708 278 671 l 236 694 l 97 694 z m 236 347 b 422 583 236 514 286 583 b 608 347 558 583 608 514 b 422 111 608 181 558 111 b 236 347 286 111 236 181 z "},"þ":{"ha":817,"x_min":0,"x_max":0,"o":"m 97 -222 l 236 -222 l 236 83 b 443 -14 278 24 346 -14 b 747 347 668 -14 747 143 b 443 708 747 551 668 708 b 236 611 346 708 278 671 l 236 972 l 97 972 z m 236 347 b 422 583 236 514 286 583 b 608 347 558 583 608 514 b 422 111 608 181 558 111 b 236 347 286 111 236 181 z "},"q":{"ha":817,"x_min":0,"x_max":0,"o":"m 719 -222 l 719 694 l 581 694 l 581 611 b 374 708 539 671 471 708 b 69 347 149 708 69 551 b 374 -14 69 143 149 -14 b 581 83 471 -14 539 24 l 581 -222 z m 208 347 b 394 583 208 514 258 583 b 581 347 531 583 581 514 b 394 111 581 181 531 111 b 208 347 258 111 208 181 z "},"r":{"ha":558,"x_min":0,"x_max":0,"o":"m 83 694 l 83 0 l 222 0 l 222 569 l 489 569 l 489 694 z "},"ŕ":{"ha":558,"x_min":0,"x_max":0,"o":"m 83 694 l 83 0 l 222 0 l 222 569 l 489 569 l 489 694 z m 231 847 l 354 847 l 508 1056 l 357 1056 z "},"ř":{"ha":558,"x_min":0,"x_max":0,"o":"m 83 694 l 83 0 l 222 0 l 222 569 l 489 569 l 489 694 z m 43 1083 l 231 847 l 342 847 l 529 1083 l 383 1083 l 290 944 l 282 944 l 189 1083 z "},"ŗ":{"ha":558,"x_min":0,"x_max":0,"o":"m 83 694 l 83 0 l 222 0 l 222 569 l 489 569 l 489 694 z m 90 -250 l 161 -250 l 215 -153 l 215 -56 l 90 -56 l 90 -153 l 132 -153 z "},"s":{"ha":722,"x_min":0,"x_max":0,"o":"m 83 215 l 83 75 b 378 -14 185 7 269 -14 b 639 194 540 -14 639 76 b 358 421 639 322 564 365 b 222 518 240 453 222 479 b 317 583 222 553 246 583 b 583 511 393 583 482 561 l 583 636 b 331 708 515 683 424 708 b 83 514 182 708 83 629 b 336 296 83 404 138 339 b 500 193 464 268 500 242 b 378 111 500 150 468 111 b 83 215 275 111 210 136 z "},"ś":{"ha":722,"x_min":0,"x_max":0,"o":"m 83 215 l 83 75 b 378 -14 185 7 269 -14 b 639 194 540 -14 639 76 b 358 421 639 322 564 365 b 222 518 240 453 222 479 b 317 583 222 553 246 583 b 583 511 393 583 482 561 l 583 636 b 331 708 515 683 424 708 b 83 514 182 708 83 629 b 336 296 83 404 138 339 b 500 193 464 268 500 242 b 378 111 500 150 468 111 b 83 215 275 111 210 136 z m 318 847 l 442 847 l 596 1056 l 444 1056 z "},"š":{"ha":722,"x_min":0,"x_max":0,"o":"m 83 215 l 83 75 b 378 -14 185 7 269 -14 b 639 194 540 -14 639 76 b 358 421 639 322 564 365 b 222 518 240 453 222 479 b 317 583 222 553 246 583 b 583 511 393 583 482 561 l 583 636 b 331 708 515 683 424 708 b 83 514 182 708 83 629 b 336 296 83 404 138 339 b 500 193 464 268 500 242 b 378 111 500 150 468 111 b 83 215 275 111 210 136 z m 131 1083 l 318 847 l 429 847 l 617 1083 l 471 1083 l 378 944 l 369 944 l 276 1083 z "},"ş":{"ha":722,"x_min":0,"x_max":0,"o":"m 83 215 l 83 75 b 304 -10 161 24 229 -1 l 285 -42 b 239 -139 401 -64 374 -167 l 239 -222 b 363 -42 481 -258 532 -75 l 369 -14 l 378 -14 b 639 194 540 -14 639 76 b 358 421 639 322 564 365 b 222 518 240 453 222 479 b 317 583 222 553 246 583 b 583 511 393 583 482 561 l 583 636 b 331 708 515 683 424 708 b 83 514 182 708 83 629 b 336 296 83 404 138 339 b 500 193 464 268 500 242 b 378 111 500 150 468 111 b 83 215 275 111 210 136 z "},"ș":{"ha":722,"x_min":0,"x_max":0,"o":"m 83 215 l 83 75 b 378 -14 185 7 269 -14 b 639 194 540 -14 639 76 b 358 421 639 322 564 365 b 222 518 240 453 222 479 b 317 583 222 553 246 583 b 583 511 393 583 482 561 l 583 636 b 331 708 515 683 424 708 b 83 514 182 708 83 629 b 336 296 83 404 138 339 b 500 193 464 268 500 242 b 378 111 500 150 468 111 b 83 215 275 111 210 136 z m 283 -250 l 354 -250 l 408 -153 l 408 -56 l 283 -56 l 283 -153 l 325 -153 z "},"ß":{"ha":858,"x_min":0,"x_max":0,"o":"m 485 111 b 350 139 421 111 386 125 l 350 14 b 485 -14 386 0 421 -14 b 775 264 696 -14 775 115 b 558 482 775 368 735 482 l 558 504 b 692 694 646 532 692 592 b 408 958 692 829 613 958 b 97 639 176 958 97 815 l 97 0 l 236 0 l 236 639 b 401 833 236 778 286 833 b 553 681 503 833 553 778 b 422 551 553 593 510 551 l 361 551 l 361 426 l 422 426 b 636 271 565 426 636 385 b 485 111 636 153 586 111 z "},"t":{"ha":586,"x_min":0,"x_max":0,"o":"m 181 0 l 503 0 l 503 125 l 319 125 l 319 569 l 503 569 l 503 694 l 319 694 l 319 972 l 181 972 l 181 694 l 69 694 l 69 569 l 181 569 z "},"ŧ":{"ha":586,"x_min":0,"x_max":0,"o":"m 181 0 l 503 0 l 503 125 l 319 125 l 319 278 l 503 278 l 503 417 l 319 417 l 319 569 l 503 569 l 503 694 l 319 694 l 319 972 l 181 972 l 181 694 l 69 694 l 69 569 l 181 569 l 181 417 l 69 417 l 69 278 l 181 278 z "},"ť":{"ha":642,"x_min":0,"x_max":0,"o":"m 181 0 l 503 0 l 503 125 l 319 125 l 319 569 l 503 569 l 503 694 l 319 694 l 319 972 l 181 972 l 181 694 l 69 694 l 69 569 l 181 569 z m 419 792 l 504 792 l 558 958 l 558 1083 l 419 1083 l 419 958 l 461 958 z "},"ţ":{"ha":586,"x_min":0,"x_max":0,"o":"m 181 0 l 307 0 l 281 -42 b 235 -139 397 -64 369 -167 l 235 -222 b 358 -42 476 -258 528 -75 l 368 0 l 503 0 l 503 125 l 319 125 l 319 569 l 503 569 l 503 694 l 319 694 l 319 972 l 181 972 l 181 694 l 69 694 l 69 569 l 181 569 z "},"ț":{"ha":586,"x_min":0,"x_max":0,"o":"m 181 0 l 503 0 l 503 125 l 319 125 l 319 569 l 503 569 l 503 694 l 319 694 l 319 972 l 181 972 l 181 694 l 69 694 l 69 569 l 181 569 z m 279 -250 l 350 -250 l 404 -153 l 404 -56 l 279 -56 l 279 -153 l 321 -153 z "},"u":{"ha":789,"x_min":0,"x_max":0,"o":"m 706 306 l 706 694 l 567 694 l 567 278 b 394 111 567 153 517 111 b 222 278 272 111 222 153 l 222 694 l 83 694 l 83 306 b 394 -14 83 74 190 -14 b 706 306 599 -14 706 74 z "},"ú":{"ha":789,"x_min":0,"x_max":0,"o":"m 706 306 l 706 694 l 567 694 l 567 278 b 394 111 567 153 517 111 b 222 278 272 111 222 153 l 222 694 l 83 694 l 83 306 b 394 -14 83 74 190 -14 b 706 306 599 -14 706 74 z m 339 847 l 463 847 l 617 1056 l 465 1056 z "},"û":{"ha":789,"x_min":0,"x_max":0,"o":"m 706 306 l 706 694 l 567 694 l 567 278 b 394 111 567 153 517 111 b 222 278 272 111 222 153 l 222 694 l 83 694 l 83 306 b 394 -14 83 74 190 -14 b 706 306 599 -14 706 74 z m 151 833 l 297 833 l 390 972 l 399 972 l 492 833 l 638 833 l 450 1069 l 339 1069 z "},"ü":{"ha":789,"x_min":0,"x_max":0,"o":"m 706 306 l 706 694 l 567 694 l 567 278 b 394 111 567 153 517 111 b 222 278 272 111 222 153 l 222 694 l 83 694 l 83 306 b 394 -14 83 74 190 -14 b 706 306 599 -14 706 74 z m 200 847 l 339 847 l 339 972 l 200 972 z m 450 847 l 589 847 l 589 972 l 450 972 z "},"ù":{"ha":789,"x_min":0,"x_max":0,"o":"m 706 306 l 706 694 l 567 694 l 567 278 b 394 111 567 153 517 111 b 222 278 272 111 222 153 l 222 694 l 83 694 l 83 306 b 394 -14 83 74 190 -14 b 706 306 599 -14 706 74 z m 186 1056 l 340 847 l 464 847 l 338 1056 z "},"ű":{"ha":789,"x_min":0,"x_max":0,"o":"m 706 306 l 706 694 l 567 694 l 567 278 b 394 111 567 153 517 111 b 222 278 272 111 222 153 l 222 694 l 83 694 l 83 306 b 394 -14 83 74 190 -14 b 706 306 599 -14 706 74 z m 214 847 l 338 847 l 492 1056 l 340 1056 z m 450 847 l 574 847 l 728 1056 l 576 1056 z "},"ū":{"ha":789,"x_min":0,"x_max":0,"o":"m 706 306 l 706 694 l 567 694 l 567 278 b 394 111 567 153 517 111 b 222 278 272 111 222 153 l 222 694 l 83 694 l 83 306 b 394 -14 83 74 190 -14 b 706 306 599 -14 706 74 z m 178 875 l 611 875 l 611 986 l 178 986 z "},"ų":{"ha":789,"x_min":0,"x_max":0,"o":"m 706 306 l 706 694 l 567 694 l 567 278 b 394 111 567 153 517 111 b 222 278 272 111 222 153 l 222 694 l 83 694 l 83 306 b 392 -14 83 75 189 -12 b 600 -222 301 -112 342 -260 l 600 -139 b 490 -6 408 -164 438 -76 b 706 306 632 19 706 113 z "},"ů":{"ha":789,"x_min":0,"x_max":0,"o":"m 706 306 l 706 694 l 567 694 l 567 278 b 394 111 567 153 517 111 b 222 278 272 111 222 153 l 222 694 l 83 694 l 83 306 b 394 -14 83 74 190 -14 b 706 306 599 -14 706 74 z m 214 986 b 394 819 214 899 279 819 b 575 986 508 819 575 899 b 394 1153 575 1074 508 1153 b 214 986 279 1153 214 1074 z m 325 986 b 394 1042 325 1025 349 1042 b 464 986 440 1042 464 1025 b 394 931 464 947 440 931 b 325 986 349 931 325 947 z "},"v":{"ha":831,"x_min":0,"x_max":0,"o":"m 601 694 l 426 133 l 404 133 l 229 694 l 83 694 l 306 0 l 525 0 l 747 694 z "},"w":{"ha":1339,"x_min":0,"x_max":0,"o":"m 499 0 l 658 558 l 681 558 l 840 0 l 1065 0 l 1256 694 l 1111 694 l 963 136 l 940 136 l 782 694 l 557 694 l 399 136 l 376 136 l 228 694 l 83 694 l 274 0 z "},"ẃ":{"ha":1339,"x_min":0,"x_max":0,"o":"m 499 0 l 658 558 l 681 558 l 840 0 l 1065 0 l 1256 694 l 1111 694 l 963 136 l 940 136 l 782 694 l 557 694 l 399 136 l 376 136 l 228 694 l 83 694 l 274 0 z m 614 847 l 738 847 l 892 1056 l 740 1056 z "},"ŵ":{"ha":1339,"x_min":0,"x_max":0,"o":"m 499 0 l 658 558 l 681 558 l 840 0 l 1065 0 l 1256 694 l 1111 694 l 963 136 l 940 136 l 782 694 l 557 694 l 399 136 l 376 136 l 228 694 l 83 694 l 274 0 z m 426 833 l 572 833 l 665 972 l 674 972 l 767 833 l 913 833 l 725 1069 l 614 1069 z "},"ẅ":{"ha":1339,"x_min":0,"x_max":0,"o":"m 499 0 l 658 558 l 681 558 l 840 0 l 1065 0 l 1256 694 l 1111 694 l 963 136 l 940 136 l 782 694 l 557 694 l 399 136 l 376 136 l 228 694 l 83 694 l 274 0 z m 475 847 l 614 847 l 614 972 l 475 972 z m 725 847 l 864 847 l 864 972 l 725 972 z "},"ẁ":{"ha":1339,"x_min":0,"x_max":0,"o":"m 499 0 l 658 558 l 681 558 l 840 0 l 1065 0 l 1256 694 l 1111 694 l 963 136 l 940 136 l 782 694 l 557 694 l 399 136 l 376 136 l 228 694 l 83 694 l 274 0 z m 461 1056 l 615 847 l 739 847 l 613 1056 z "},"x":{"ha":803,"x_min":0,"x_max":0,"o":"m 561 694 l 406 444 l 397 444 l 242 694 l 69 694 l 313 347 l 69 0 l 242 0 l 397 250 l 406 250 l 561 0 l 733 0 l 490 347 l 733 694 z "},"y":{"ha":803,"x_min":0,"x_max":0,"o":"m 567 694 l 567 361 b 394 167 567 222 517 167 b 222 361 272 167 222 222 l 222 694 l 83 694 l 83 361 b 374 42 83 185 163 42 b 567 125 457 42 525 79 l 567 -97 l 178 -97 l 178 -222 l 706 -222 l 706 694 z "},"ý":{"ha":803,"x_min":0,"x_max":0,"o":"m 567 694 l 567 361 b 394 167 567 222 517 167 b 222 361 272 167 222 222 l 222 694 l 83 694 l 83 361 b 374 42 83 185 163 42 b 567 125 457 42 525 79 l 567 -97 l 178 -97 l 178 -222 l 706 -222 l 706 694 z m 339 847 l 463 847 l 617 1056 l 465 1056 z "},"ŷ":{"ha":803,"x_min":0,"x_max":0,"o":"m 567 694 l 567 361 b 394 167 567 222 517 167 b 222 361 272 167 222 222 l 222 694 l 83 694 l 83 361 b 374 42 83 185 163 42 b 567 125 457 42 525 79 l 567 -97 l 178 -97 l 178 -222 l 706 -222 l 706 694 z m 151 833 l 297 833 l 390 972 l 399 972 l 492 833 l 638 833 l 450 1069 l 339 1069 z "},"ÿ":{"ha":803,"x_min":0,"x_max":0,"o":"m 567 694 l 567 361 b 394 167 567 222 517 167 b 222 361 272 167 222 222 l 222 694 l 83 694 l 83 361 b 374 42 83 185 163 42 b 567 125 457 42 525 79 l 567 -97 l 178 -97 l 178 -222 l 706 -222 l 706 694 z m 200 847 l 339 847 l 339 972 l 200 972 z m 450 847 l 589 847 l 589 972 l 450 972 z "},"ỳ":{"ha":803,"x_min":0,"x_max":0,"o":"m 567 694 l 567 361 b 394 167 567 222 517 167 b 222 361 272 167 222 222 l 222 694 l 83 694 l 83 361 b 374 42 83 185 163 42 b 567 125 457 42 525 79 l 567 -97 l 178 -97 l 178 -222 l 706 -222 l 706 694 z m 186 1056 l 340 847 l 464 847 l 338 1056 z "},"z":{"ha":771,"x_min":0,"x_max":0,"o":"m 688 125 l 293 125 l 688 606 l 688 694 l 83 694 l 83 569 l 478 569 l 83 89 l 83 0 l 688 0 z "},"ź":{"ha":771,"x_min":0,"x_max":0,"o":"m 688 125 l 293 125 l 688 606 l 688 694 l 83 694 l 83 569 l 478 569 l 83 89 l 83 0 l 688 0 z m 331 847 l 454 847 l 608 1056 l 457 1056 z "},"ž":{"ha":771,"x_min":0,"x_max":0,"o":"m 688 125 l 293 125 l 688 606 l 688 694 l 83 694 l 83 569 l 478 569 l 83 89 l 83 0 l 688 0 z m 143 1083 l 331 847 l 442 847 l 629 1083 l 483 1083 l 390 944 l 382 944 l 289 1083 z "},"ż":{"ha":771,"x_min":0,"x_max":0,"o":"m 688 125 l 293 125 l 688 606 l 688 694 l 83 694 l 83 569 l 478 569 l 83 89 l 83 0 l 688 0 z m 317 847 l 456 847 l 456 972 l 317 972 z "},"А":{"ha":981,"x_min":0,"x_max":0,"o":"m 229 0 l 297 222 l 683 222 l 751 0 l 897 0 l 600 944 l 381 944 l 83 0 z m 336 347 l 479 815 l 501 815 l 644 347 z "},"Б":{"ha":831,"x_min":0,"x_max":0,"o":"m 443 569 l 236 569 l 236 806 l 653 806 l 653 944 l 97 944 l 97 0 l 443 0 b 747 285 668 0 747 122 b 443 569 747 447 668 569 z m 236 139 l 236 431 l 443 431 b 608 285 558 431 608 396 b 443 139 608 174 558 139 z "},"В":{"ha":831,"x_min":0,"x_max":0,"o":"m 97 0 l 443 0 b 747 264 671 0 747 129 b 544 493 747 379 707 472 l 544 515 b 719 708 683 535 719 618 b 443 944 719 822 640 944 l 97 944 z m 236 125 l 236 438 l 443 438 b 608 275 568 438 608 403 b 443 125 608 160 568 125 z m 236 563 l 236 819 l 443 819 b 581 697 547 819 581 785 b 443 563 581 597 547 563 z "},"Г":{"ha":725,"x_min":0,"x_max":0,"o":"m 97 944 l 97 0 l 236 0 l 236 806 l 669 806 l 669 944 z "},"Ґ":{"ha":725,"x_min":0,"x_max":0,"o":"m 531 1069 l 531 944 l 97 944 l 97 0 l 236 0 l 236 806 l 669 806 l 669 1069 z "},"Д":{"ha":1156,"x_min":0,"x_max":0,"o":"m 919 944 l 292 944 b 171 139 292 629 292 288 l 97 139 l 97 -222 l 236 -222 l 236 0 l 919 0 l 919 -222 l 1058 -222 l 1058 139 l 919 139 z m 324 139 b 431 806 417 265 429 533 l 781 806 l 781 139 z "},"Е":{"ha":789,"x_min":0,"x_max":0,"o":"m 97 0 l 706 0 l 706 125 l 236 125 l 236 424 l 594 424 l 594 549 l 236 549 l 236 819 l 706 819 l 706 944 l 97 944 z "},"Ё":{"ha":789,"x_min":0,"x_max":0,"o":"m 97 0 l 706 0 l 706 125 l 236 125 l 236 424 l 594 424 l 594 549 l 236 549 l 236 819 l 706 819 l 706 944 l 97 944 z m 215 1097 l 354 1097 l 354 1222 l 215 1222 z m 465 1097 l 604 1097 l 604 1222 l 465 1222 z "},"Ж":{"ha":1335,"x_min":0,"x_max":0,"o":"m 83 0 l 251 0 l 526 410 l 599 410 l 599 0 l 738 0 l 738 410 l 808 410 l 1083 0 l 1251 0 l 929 472 l 1251 944 l 1083 944 l 808 535 l 738 535 l 738 944 l 599 944 l 599 535 l 526 535 l 251 944 l 83 944 l 406 472 z "},"З":{"ha":831,"x_min":0,"x_max":0,"o":"m 222 319 l 83 319 b 415 -14 83 143 163 -14 b 747 264 668 -14 747 129 b 544 482 747 368 707 461 l 544 504 b 719 708 688 524 719 606 b 415 958 719 815 640 958 b 83 639 163 958 83 801 l 222 639 b 415 833 222 764 272 833 b 581 694 531 833 581 764 b 394 551 581 593 538 551 l 319 551 l 319 426 l 394 426 b 608 278 538 426 608 385 b 415 111 608 181 558 111 b 222 319 272 111 222 181 z "},"И":{"ha":944,"x_min":0,"x_max":0,"o":"m 708 944 l 258 269 l 236 269 l 236 944 l 97 944 l 97 0 l 236 0 l 686 675 l 708 675 l 708 0 l 847 0 l 847 944 z "},"Й":{"ha":944,"x_min":0,"x_max":0,"o":"m 708 944 l 258 269 l 236 269 l 236 944 l 97 944 l 97 0 l 236 0 l 686 675 l 708 675 l 708 0 l 847 0 l 847 944 z m 257 1292 b 458 1083 257 1125 354 1083 b 660 1292 563 1083 660 1128 l 549 1292 b 458 1194 549 1208 507 1194 b 368 1292 410 1194 368 1208 z "},"К":{"ha":889,"x_min":0,"x_max":0,"o":"m 97 944 l 97 0 l 236 0 l 236 417 l 353 417 l 638 0 l 806 0 l 474 486 b 750 806 611 589 590 806 l 750 944 b 268 542 433 944 510 542 l 236 542 l 236 944 z "},"Л":{"ha":957,"x_min":0,"x_max":0,"o":"m 874 944 l 246 944 l 246 819 b 83 139 246 456 236 139 l 83 0 b 386 819 378 0 388 432 l 735 819 l 735 0 l 874 0 z "},"М":{"ha":1214,"x_min":0,"x_max":0,"o":"m 236 944 l 97 944 l 97 0 l 236 0 l 236 600 l 258 600 l 507 78 l 707 78 l 956 600 l 978 600 l 978 0 l 1117 0 l 1117 944 l 978 944 l 618 200 l 596 200 z "},"Н":{"ha":943,"x_min":0,"x_max":0,"o":"m 97 0 l 236 0 l 236 396 l 707 396 l 707 0 l 846 0 l 846 944 l 707 944 l 707 521 l 236 521 l 236 944 l 97 944 z "},"О":{"ha":1061,"x_min":0,"x_max":0,"o":"m 531 -14 b 992 472 819 -14 992 194 b 531 958 992 750 819 958 b 69 472 242 958 69 750 b 531 -14 69 194 242 -14 z m 208 472 b 531 833 208 738 344 833 b 853 472 715 833 853 738 b 531 111 853 207 715 111 b 208 472 344 111 208 207 z "},"П":{"ha":956,"x_min":0,"x_max":0,"o":"m 83 944 l 83 0 l 222 0 l 222 819 l 733 819 l 733 0 l 872 0 l 872 944 z "},"Р":{"ha":874,"x_min":0,"x_max":0,"o":"m 236 282 l 422 282 b 790 614 722 282 790 415 b 422 944 790 813 722 944 l 97 944 l 97 0 l 236 0 z m 236 407 l 236 819 l 422 819 b 651 614 611 819 651 771 b 422 407 651 461 611 407 z "},"С":{"ha":957,"x_min":0,"x_max":0,"o":"m 69 472 b 489 -14 69 222 186 -14 b 888 360 747 -14 879 151 l 749 360 b 489 111 725 196 678 111 b 208 472 289 111 208 221 b 489 833 208 724 289 833 b 749 585 678 833 725 749 l 888 585 b 489 958 879 793 747 958 b 69 472 186 958 69 722 z "},"Т":{"ha":886,"x_min":0,"x_max":0,"o":"m 83 819 l 374 819 l 374 0 l 513 0 l 513 819 l 803 819 l 803 944 l 83 944 z "},"У":{"ha":789,"x_min":0,"x_max":0,"o":"m 567 944 l 567 625 b 394 431 567 486 517 431 b 222 625 272 431 222 486 l 222 944 l 83 944 l 83 625 b 374 306 83 449 163 306 b 567 389 457 306 525 343 l 567 125 l 178 125 l 178 0 l 706 0 l 706 944 z "},"Ф":{"ha":1089,"x_min":0,"x_max":0,"o":"m 475 0 l 614 0 l 614 100 b 1006 472 861 121 1006 256 b 614 844 1006 689 861 824 l 614 944 l 475 944 l 475 844 b 83 472 228 824 83 689 b 475 100 83 256 228 121 z m 222 472 b 475 719 222 643 325 706 l 475 225 b 222 472 325 239 222 301 z m 614 225 l 614 719 b 867 472 763 706 867 643 b 614 225 867 301 763 239 z "},"Х":{"ha":997,"x_min":0,"x_max":0,"o":"m 746 944 l 503 576 l 494 576 l 251 944 l 83 944 l 403 472 l 83 0 l 251 0 l 494 368 l 503 368 l 746 0 l 914 0 l 594 472 l 914 944 z "},"Ч":{"ha":951,"x_min":0,"x_max":0,"o":"m 729 0 l 868 0 l 868 944 l 729 944 l 729 507 l 489 507 b 250 944 261 507 250 610 l 111 944 b 489 382 111 611 144 382 l 729 382 z "},"Ц":{"ha":1122,"x_min":0,"x_max":0,"o":"m 83 0 l 900 0 l 900 -222 l 1039 -222 l 1039 125 l 872 125 l 872 944 l 733 944 l 733 125 l 222 125 l 222 944 l 83 944 z "},"Ш":{"ha":1194,"x_min":0,"x_max":0,"o":"m 83 0 l 1111 0 l 1111 944 l 972 944 l 972 125 l 667 125 l 667 944 l 528 944 l 528 125 l 222 125 l 222 944 l 83 944 z "},"Щ":{"ha":1361,"x_min":0,"x_max":0,"o":"m 83 0 l 1139 0 l 1139 -222 l 1278 -222 l 1278 125 l 1111 125 l 1111 944 l 972 944 l 972 125 l 667 125 l 667 944 l 528 944 l 528 125 l 222 125 l 222 944 l 83 944 z "},"Ь":{"ha":817,"x_min":0,"x_max":0,"o":"m 429 569 l 222 569 l 222 944 l 83 944 l 83 0 l 429 0 b 733 285 654 0 733 136 b 429 569 733 433 654 569 z m 222 125 l 222 444 l 429 444 b 594 285 544 444 594 396 b 429 125 594 174 544 125 z "},"Ъ":{"ha":1039,"x_min":0,"x_max":0,"o":"m 83 819 l 306 819 l 306 0 l 651 0 b 956 285 876 0 956 136 b 651 569 956 433 876 569 l 444 569 l 444 944 l 83 944 z m 444 125 l 444 444 l 651 444 b 817 285 767 444 817 396 b 651 125 817 174 767 125 z "},"Ы":{"ha":1097,"x_min":0,"x_max":0,"o":"m 875 0 l 1014 0 l 1014 944 l 875 944 z m 83 0 l 429 0 b 733 285 654 0 733 136 b 429 569 733 433 654 569 l 222 569 l 222 944 l 83 944 z m 222 125 l 222 444 l 429 444 b 594 285 544 444 594 396 b 429 125 594 174 544 125 z "},"Є":{"ha":957,"x_min":0,"x_max":0,"o":"m 69 472 b 489 -14 69 222 186 -14 b 888 360 747 -14 879 151 l 749 360 b 489 111 725 196 678 111 b 210 410 307 111 224 203 l 600 410 l 600 535 l 210 535 b 489 833 224 742 307 833 b 749 585 678 833 725 749 l 888 585 b 489 958 879 793 747 958 b 69 472 186 958 69 722 z "},"Э":{"ha":957,"x_min":0,"x_max":0,"o":"m 396 410 l 747 410 b 468 111 733 203 650 111 b 208 360 279 111 232 196 l 69 360 b 468 -14 78 151 210 -14 b 888 472 771 -14 888 222 b 468 958 888 722 771 958 b 69 585 210 958 78 793 l 208 585 b 468 833 232 749 279 833 b 747 535 650 833 733 742 l 396 535 z "},"І":{"ha":333,"x_min":0,"x_max":0,"o":"m 97 0 l 236 0 l 236 944 l 97 944 z "},"Ї":{"ha":333,"x_min":0,"x_max":0,"o":"m 97 0 l 236 0 l 236 944 l 97 944 z m -28 1097 l 111 1097 l 111 1222 l -28 1222 z m 222 1097 l 361 1097 l 361 1222 l 222 1222 z "},"Ю":{"ha":1250,"x_min":0,"x_max":0,"o":"m 789 -14 b 1167 472 1078 -14 1167 208 b 789 958 1167 736 1078 958 b 413 535 524 958 426 771 l 222 535 l 222 944 l 83 944 l 83 0 l 222 0 l 222 410 l 413 410 b 789 -14 426 174 524 -14 z m 550 472 b 789 833 550 724 603 833 b 1028 472 974 833 1028 724 b 789 111 1028 221 974 111 b 550 472 603 111 550 221 z "},"Я":{"ha":874,"x_min":0,"x_max":0,"o":"m 83 0 l 222 0 l 222 317 l 638 317 l 638 0 l 776 0 l 776 944 l 465 944 b 97 642 165 944 97 813 b 360 397 97 489 151 413 l 360 375 l 83 375 z m 236 628 b 465 819 236 771 276 819 l 638 819 l 638 442 l 465 442 b 236 628 276 442 236 489 z "},"а":{"ha":817,"x_min":0,"x_max":0,"o":"m 318 472 b 69 229 149 472 69 350 b 318 -14 69 108 149 -14 b 511 69 415 -14 469 14 l 511 0 l 733 0 l 733 139 l 650 139 l 650 694 l 150 694 l 150 569 l 511 569 l 511 389 b 318 472 469 444 415 472 z m 208 229 b 360 347 208 299 258 347 b 511 229 461 347 511 299 b 360 111 511 160 461 111 b 208 229 258 111 208 160 z "},"б":{"ha":817,"x_min":0,"x_max":0,"o":"m 429 708 b 222 611 332 708 264 657 b 436 819 222 731 226 819 b 650 850 519 819 588 819 l 650 972 b 436 944 569 944 517 944 b 83 625 122 944 83 763 l 83 417 b 408 -14 83 144 163 -14 b 733 347 654 -14 733 143 b 429 708 733 551 654 708 z m 222 361 b 408 583 222 514 272 583 b 594 347 544 583 594 514 b 408 111 594 181 544 111 b 222 361 272 111 222 222 z "},"в":{"ha":714,"x_min":0,"x_max":0,"o":"m 83 0 l 407 0 b 631 192 572 0 631 85 b 464 360 631 297 588 349 l 464 382 b 610 514 574 393 610 447 b 407 694 610 621 553 694 l 83 694 z m 222 125 l 222 304 l 383 304 b 492 218 468 304 492 276 b 383 125 492 160 468 125 z m 222 429 l 222 569 l 392 569 b 471 496 456 569 471 543 b 392 429 471 449 456 429 z "},"г":{"ha":642,"x_min":0,"x_max":0,"o":"m 83 694 l 83 0 l 222 0 l 222 569 l 558 569 l 558 694 z "},"ґ":{"ha":642,"x_min":0,"x_max":0,"o":"m 419 833 l 419 694 l 83 694 l 83 0 l 222 0 l 222 569 l 558 569 l 558 833 z "},"д":{"ha":989,"x_min":0,"x_max":0,"o":"m 781 694 l 278 694 b 157 125 278 379 278 288 l 83 125 l 83 -222 l 222 -222 l 222 0 l 781 0 l 781 -222 l 919 -222 l 919 125 l 781 125 z m 310 125 b 417 569 403 264 415 351 l 642 569 l 642 125 z "},"е":{"ha":753,"x_min":0,"x_max":0,"o":"m 69 347 b 422 -14 69 210 108 -14 b 622 14 475 -14 514 -14 l 622 136 b 422 111 532 111 478 111 b 211 285 260 111 221 188 l 669 285 l 669 361 b 369 708 669 579 583 708 b 69 347 156 708 69 565 z m 208 410 b 369 583 215 522 263 583 b 531 410 482 583 528 531 z "},"ё":{"ha":753,"x_min":0,"x_max":0,"o":"m 69 347 b 422 -14 69 210 108 -14 b 622 14 475 -14 514 -14 l 622 136 b 422 111 532 111 478 111 b 211 285 260 111 221 188 l 669 285 l 669 361 b 369 708 669 579 583 708 b 69 347 156 708 69 565 z m 189 847 l 328 847 l 328 972 l 189 972 z m 208 410 b 369 583 215 522 263 583 b 531 410 482 583 528 531 z m 439 847 l 578 847 l 578 972 l 439 972 z "},"ж":{"ha":1142,"x_min":0,"x_max":0,"o":"m 490 694 l 490 408 l 446 408 l 251 694 l 83 694 l 321 346 l 83 0 l 251 0 l 446 283 l 490 283 l 490 0 l 629 0 l 629 283 l 696 283 l 890 0 l 1058 0 l 821 346 l 1058 694 l 890 694 l 696 408 l 629 408 l 629 694 z "},"з":{"ha":719,"x_min":0,"x_max":0,"o":"m 222 250 l 83 250 b 374 -14 83 115 163 -14 b 636 194 571 -14 636 101 b 485 344 636 268 606 331 l 485 367 b 618 514 585 376 618 426 b 369 708 618 593 539 708 b 107 472 186 708 107 579 l 246 472 b 369 583 246 556 296 583 b 479 486 429 583 479 556 b 390 414 479 428 436 414 l 329 414 l 329 289 l 390 289 b 497 208 436 289 497 275 b 374 111 497 149 461 111 b 222 250 272 111 222 149 z "},"и":{"ha":778,"x_min":0,"x_max":0,"o":"m 556 694 l 244 253 l 222 253 l 222 694 l 83 694 l 83 0 l 222 0 l 533 442 l 556 442 l 556 0 l 694 0 l 694 694 z "},"й":{"ha":778,"x_min":0,"x_max":0,"o":"m 556 694 l 244 253 l 222 253 l 222 694 l 83 694 l 83 0 l 222 0 l 533 442 l 556 442 l 556 0 l 694 0 l 694 694 z m 188 1042 b 389 833 188 875 285 833 b 590 1042 493 833 590 878 l 479 1042 b 389 944 479 958 438 944 b 299 1042 340 944 299 958 z "},"к":{"ha":776,"x_min":0,"x_max":0,"o":"m 83 694 l 83 0 l 222 0 l 222 283 l 336 283 l 525 0 l 693 0 l 456 346 l 693 694 l 525 694 l 336 408 l 222 408 l 222 694 z "},"л":{"ha":860,"x_min":0,"x_max":0,"o":"m 776 694 l 246 694 l 246 581 b 83 139 244 340 232 139 l 83 0 b 386 569 364 0 386 301 l 638 569 l 638 0 l 776 0 z "},"м":{"ha":992,"x_min":0,"x_max":0,"o":"m 222 694 l 83 694 l 83 0 l 222 0 l 222 378 l 244 378 l 406 92 l 586 92 l 747 378 l 769 378 l 769 0 l 908 0 l 908 694 l 769 694 l 507 210 l 485 210 z "},"н":{"ha":790,"x_min":0,"x_max":0,"o":"m 83 0 l 222 0 l 222 269 l 568 269 l 568 0 l 707 0 l 707 694 l 568 694 l 568 394 l 222 394 l 222 694 l 83 694 z "},"о":{"ha":803,"x_min":0,"x_max":0,"o":"m 401 -14 b 733 347 613 -14 733 129 b 401 708 733 565 613 708 b 69 347 190 708 69 565 b 401 -14 69 129 190 -14 z m 208 347 b 401 583 208 528 258 583 b 594 347 544 583 594 528 b 401 111 594 167 544 111 b 208 347 258 111 208 167 z "},"п":{"ha":819,"x_min":0,"x_max":0,"o":"m 83 694 l 83 0 l 222 0 l 222 569 l 597 569 l 597 0 l 736 0 l 736 694 z "},"р":{"ha":817,"x_min":0,"x_max":0,"o":"m 97 -222 l 236 -222 l 236 83 b 443 -14 278 24 346 -14 b 747 347 668 -14 747 143 b 443 708 747 551 668 708 b 236 611 346 708 278 671 l 236 694 l 97 694 z m 236 347 b 422 583 236 514 286 583 b 608 347 558 583 608 514 b 422 111 608 181 558 111 b 236 347 286 111 236 181 z "},"с":{"ha":753,"x_min":0,"x_max":0,"o":"m 69 347 b 381 -14 69 129 176 -14 b 669 264 563 -14 669 99 l 531 264 b 388 111 525 178 496 111 b 208 347 258 111 208 167 b 388 583 208 528 258 583 b 531 431 496 583 525 517 l 669 431 b 381 708 669 596 563 708 b 69 347 176 708 69 565 z "},"т":{"ha":789,"x_min":0,"x_max":0,"o":"m 69 569 l 318 569 l 318 0 l 457 0 l 457 569 l 706 569 l 706 694 l 69 694 z "},"у":{"ha":803,"x_min":0,"x_max":0,"o":"m 567 694 l 567 361 b 394 167 567 222 517 167 b 222 361 272 167 222 222 l 222 694 l 83 694 l 83 361 b 374 42 83 185 163 42 b 567 125 457 42 525 79 l 567 -97 l 178 -97 l 178 -222 l 706 -222 l 706 694 z "},"ф":{"ha":978,"x_min":0,"x_max":0,"o":"m 419 -222 l 558 -222 l 558 4 b 894 347 775 26 894 158 b 558 690 894 536 775 668 l 558 972 l 419 972 l 419 690 b 83 347 203 668 83 536 b 419 4 83 158 203 26 z m 222 347 b 419 565 222 489 300 550 l 419 129 b 222 347 300 144 222 206 z m 558 129 l 558 565 b 756 347 678 550 756 489 b 558 129 756 206 678 144 z "},"х":{"ha":803,"x_min":0,"x_max":0,"o":"m 561 694 l 406 444 l 397 444 l 242 694 l 69 694 l 313 347 l 69 0 l 242 0 l 397 250 l 406 250 l 561 0 l 733 0 l 490 347 l 733 694 z "},"ч":{"ha":785,"x_min":0,"x_max":0,"o":"m 563 0 l 701 0 l 701 694 l 563 694 l 563 368 l 433 368 b 222 694 233 368 222 471 l 83 694 b 433 243 83 472 117 243 l 563 243 z "},"ц":{"ha":944,"x_min":0,"x_max":0,"o":"m 83 0 l 764 0 l 764 -222 l 903 -222 l 903 125 l 736 125 l 736 694 l 597 694 l 597 125 l 222 125 l 222 694 l 83 694 z "},"ш":{"ha":1111,"x_min":0,"x_max":0,"o":"m 83 0 l 1028 0 l 1028 694 l 889 694 l 889 125 l 625 125 l 625 694 l 486 694 l 486 125 l 222 125 l 222 694 l 83 694 z "},"щ":{"ha":1250,"x_min":0,"x_max":0,"o":"m 83 0 l 1056 0 l 1056 -222 l 1194 -222 l 1194 125 l 1028 125 l 1028 694 l 889 694 l 889 125 l 625 125 l 625 694 l 486 694 l 486 125 l 222 125 l 222 694 l 83 694 z "},"ь":{"ha":718,"x_min":0,"x_max":0,"o":"m 381 475 l 222 475 l 222 694 l 83 694 l 83 0 l 381 0 b 635 238 568 0 635 114 b 381 475 635 361 568 475 z m 222 125 l 222 350 l 358 350 b 496 238 454 350 496 329 b 358 125 496 146 454 125 z "},"ъ":{"ha":844,"x_min":0,"x_max":0,"o":"m 56 569 l 210 569 l 210 0 l 507 0 b 761 238 694 0 761 114 b 507 475 761 361 694 475 l 349 475 l 349 694 l 56 694 z m 349 125 l 349 350 l 485 350 b 622 238 581 350 622 329 b 485 125 622 146 581 125 z "},"ы":{"ha":960,"x_min":0,"x_max":0,"o":"m 738 694 l 738 0 l 876 0 l 876 694 z m 83 0 l 381 0 b 635 238 568 0 635 114 b 381 475 635 361 568 475 l 222 475 l 222 694 l 83 694 z m 222 125 l 222 350 l 358 350 b 496 238 454 350 496 329 b 358 125 496 146 454 125 z "},"є":{"ha":753,"x_min":0,"x_max":0,"o":"m 69 347 b 381 -14 69 129 176 -14 b 669 264 563 -14 669 99 l 531 264 b 388 111 525 178 496 111 b 211 285 275 111 222 154 l 406 285 l 406 410 l 211 410 b 388 583 222 540 275 583 b 531 431 496 583 525 517 l 669 431 b 381 708 669 596 563 708 b 69 347 176 708 69 565 z "},"э":{"ha":767,"x_min":0,"x_max":0,"o":"m 333 410 l 333 285 l 556 285 b 379 111 544 154 492 111 b 236 264 271 111 242 178 l 97 264 b 386 -14 97 99 204 -14 b 697 347 590 -14 697 129 b 386 708 697 565 590 708 b 97 431 204 708 97 596 l 236 431 b 379 583 242 517 271 583 b 556 410 492 583 544 540 z "},"і":{"ha":333,"x_min":0,"x_max":0,"o":"m 97 694 l 97 0 l 236 0 l 236 694 z m 97 833 l 236 833 l 236 972 l 97 972 z "},"ї":{"ha":333,"x_min":0,"x_max":0,"o":"m 97 694 l 97 0 l 236 0 l 236 694 z m -28 847 l 111 847 l 111 972 l -28 972 z m 222 847 l 361 847 l 361 972 l 222 972 z "},"ю":{"ha":1111,"x_min":0,"x_max":0,"o":"m 719 -14 b 1028 347 967 -14 1028 181 b 719 708 1028 514 967 708 b 414 410 503 708 429 558 l 222 410 l 222 694 l 83 694 l 83 0 l 222 0 l 222 285 l 414 285 b 719 -14 429 136 503 -14 z m 550 347 b 719 583 550 501 575 583 b 889 347 863 583 889 501 b 719 111 889 193 863 111 b 550 347 575 111 550 193 z "},"я":{"ha":749,"x_min":0,"x_max":0,"o":"m 83 0 l 222 0 l 222 233 l 526 233 l 526 0 l 665 0 l 665 694 l 410 694 b 97 489 165 694 97 625 b 304 310 97 357 165 325 l 304 288 l 83 288 z m 236 461 b 410 569 236 549 276 569 l 526 569 l 526 358 l 410 358 b 236 461 276 358 236 378 z "},"⁄":{"ha":890,"x_min":0,"x_max":0,"o":"m 807 944 l 707 944 l 83 0 l 183 0 z "},"½":{"ha":1239,"x_min":0,"x_max":0,"o":"m 276 944 l 83 944 l 83 869 l 193 869 l 193 378 l 276 378 z m 208 0 l 308 0 l 932 944 l 832 944 z m 790 0 l 1147 0 l 1147 75 l 915 75 l 1046 201 b 1156 400 1118 271 1156 319 b 972 575 1156 481 1108 575 b 790 375 838 575 790 481 l 874 375 b 972 500 874 458 904 500 b 1072 404 1042 500 1072 463 b 964 236 1072 343 1039 307 l 790 75 z "},"¼":{"ha":1246,"x_min":0,"x_max":0,"o":"m 276 944 l 83 944 l 83 869 l 193 869 l 193 378 l 276 378 z m 194 0 l 294 0 l 918 944 l 818 944 z m 813 201 l 1079 201 l 1079 0 l 1163 0 l 1163 567 l 1079 567 l 1079 276 l 896 276 l 896 525 l 813 525 z "},"¾":{"ha":1371,"x_min":0,"x_max":0,"o":"m 167 553 l 83 553 b 275 369 83 464 131 369 b 465 553 418 369 465 464 b 283 703 465 667 388 719 l 449 869 l 449 944 l 108 944 l 108 869 l 339 869 l 190 719 l 224 644 l 288 644 b 382 553 339 644 382 624 b 275 444 382 486 351 444 b 167 553 197 444 167 486 z m 319 0 l 419 0 l 1043 944 l 943 944 z m 938 201 l 1204 201 l 1204 0 l 1288 0 l 1288 567 l 1204 567 l 1204 276 l 1021 276 l 1021 525 l 938 525 z "},"⅛":{"ha":1251,"x_min":0,"x_max":0,"o":"m 757 150 b 963 -8 757 75 801 -8 b 1168 150 1124 -8 1168 75 b 1044 301 1168 222 1146 276 l 1044 315 b 1135 433 1117 340 1135 376 b 963 575 1135 508 1090 575 b 790 433 835 575 790 508 b 881 315 790 376 808 340 l 881 301 b 757 150 779 276 757 222 z m 83 869 l 193 869 l 193 378 l 276 378 l 276 944 l 83 944 z m 194 0 l 294 0 l 918 944 l 818 944 z m 840 171 b 963 271 840 231 864 271 b 1085 171 1061 271 1085 231 b 963 67 1085 111 1061 67 b 840 171 864 67 840 111 z m 874 421 b 963 500 874 472 897 500 b 1051 421 1028 500 1051 472 b 963 346 1051 378 1028 346 b 874 421 897 346 874 378 z "},"⅜":{"ha":1376,"x_min":0,"x_max":0,"o":"m 167 553 l 83 553 b 275 369 83 464 131 369 b 465 553 418 369 465 464 b 283 703 465 667 388 719 l 449 869 l 449 944 l 108 944 l 108 869 l 339 869 l 190 719 l 224 644 l 288 644 b 382 553 339 644 382 624 b 275 444 382 486 351 444 b 167 553 197 444 167 486 z m 319 0 l 419 0 l 1043 944 l 943 944 z m 882 150 b 1088 -8 882 75 926 -8 b 1293 150 1249 -8 1293 75 b 1169 301 1293 222 1271 276 l 1169 315 b 1260 433 1242 340 1260 376 b 1088 575 1260 508 1215 575 b 915 433 960 575 915 508 b 1006 315 915 376 933 340 l 1006 301 b 882 150 904 276 882 222 z m 965 171 b 1088 271 965 231 989 271 b 1210 171 1186 271 1210 231 b 1088 67 1210 111 1186 67 b 965 171 989 67 965 111 z m 999 421 b 1088 500 999 472 1022 500 b 1176 421 1153 500 1176 472 b 1088 346 1176 378 1153 346 b 999 421 1022 346 999 378 z "},"⅝":{"ha":1382,"x_min":0,"x_max":0,"o":"m 97 631 l 172 631 b 275 694 185 665 217 694 b 394 569 357 694 394 653 b 275 444 394 486 357 444 b 169 525 215 444 183 483 l 83 525 b 275 369 97 433 158 369 b 478 569 422 369 478 464 b 304 769 478 675 422 769 b 183 714 250 769 211 753 l 206 869 l 439 869 l 439 944 l 139 944 z m 325 0 l 425 0 l 1049 944 l 949 944 z m 888 150 b 1093 -8 888 75 932 -8 b 1299 150 1254 -8 1299 75 b 1175 301 1299 222 1276 276 l 1175 315 b 1265 433 1247 340 1265 376 b 1093 575 1265 508 1221 575 b 921 433 965 575 921 508 b 1011 315 921 376 939 340 l 1011 301 b 888 150 910 276 888 222 z m 971 171 b 1093 271 971 231 994 271 b 1215 171 1192 271 1215 231 b 1093 67 1215 111 1192 67 b 971 171 994 67 971 111 z m 1004 421 b 1093 500 1004 472 1028 500 b 1182 421 1158 500 1182 472 b 1093 346 1182 378 1158 346 b 1004 421 1028 346 1004 378 z "},"⅞":{"ha":1238,"x_min":0,"x_max":0,"o":"m 83 944 l 83 869 l 368 869 l 117 378 l 211 378 l 463 869 l 463 944 z m 181 0 l 281 0 l 904 944 l 804 944 z m 743 150 b 949 -8 743 75 788 -8 b 1154 150 1110 -8 1154 75 b 1031 301 1154 222 1132 276 l 1031 315 b 1121 433 1103 340 1121 376 b 949 575 1121 508 1076 575 b 776 433 821 575 776 508 b 867 315 776 376 794 340 l 867 301 b 743 150 765 276 743 222 z m 826 171 b 949 271 826 231 850 271 b 1071 171 1047 271 1071 231 b 949 67 1071 111 1047 67 b 826 171 850 67 826 111 z m 860 421 b 949 500 860 472 883 500 b 1038 421 1014 500 1038 472 b 949 346 1038 378 1014 346 b 860 421 883 346 860 378 z "},".":{"ha":306,"x_min":0,"x_max":0,"o":"m 83 125 l 83 0 l 222 0 l 222 125 z "},",":{"ha":306,"x_min":0,"x_max":0,"o":"m 83 125 l 83 0 l 125 0 l 83 -167 l 168 -167 l 222 0 l 222 125 z "},":":{"ha":306,"x_min":0,"x_max":0,"o":"m 83 125 l 83 0 l 222 0 l 222 125 z m 83 389 l 222 389 l 222 514 l 83 514 z "},";":{"ha":306,"x_min":0,"x_max":0,"o":"m 83 514 l 83 389 l 222 389 l 222 514 z m 83 -167 l 168 -167 l 222 0 l 222 125 l 83 125 l 83 0 l 125 0 z "},"…":{"ha":861,"x_min":0,"x_max":0,"o":"m 83 125 l 83 0 l 222 0 l 222 125 z m 361 0 l 500 0 l 500 125 l 361 125 z m 639 0 l 778 0 l 778 125 l 639 125 z "},"!":{"ha":306,"x_min":0,"x_max":0,"o":"m 83 250 l 222 250 l 222 944 l 83 944 z m 83 0 l 222 0 l 222 139 l 83 139 z "},"¡":{"ha":306,"x_min":0,"x_max":0,"o":"m 83 444 l 83 -250 l 222 -250 l 222 444 z m 83 556 l 222 556 l 222 694 l 83 694 z "},"?":{"ha":817,"x_min":0,"x_max":0,"o":"m 311 481 l 311 250 l 450 250 l 450 364 b 733 653 575 336 733 443 b 408 958 733 829 654 958 b 83 625 163 958 83 801 l 222 625 b 408 833 222 764 276 833 b 594 653 540 833 594 792 b 450 481 594 543 538 481 z m 311 0 l 450 0 l 450 125 l 311 125 z "},"¿":{"ha":817,"x_min":0,"x_max":0,"o":"m 506 214 l 506 444 l 367 444 l 367 331 b 83 42 242 358 83 251 b 408 -264 83 -135 163 -264 b 733 69 654 -264 733 -107 l 594 69 b 408 -139 594 -69 540 -139 b 222 42 276 -139 222 -97 b 367 214 222 151 279 214 z m 367 569 l 506 569 l 506 694 l 367 694 z "},"·":{"ha":306,"x_min":0,"x_max":0,"o":"m 83 403 l 83 278 l 222 278 l 222 403 z "},"•":{"ha":444,"x_min":0,"x_max":0,"o":"m 83 486 l 83 208 l 361 208 l 361 486 z "},"*":{"ha":608,"x_min":0,"x_max":0,"o":"m 83 688 l 139 590 l 265 683 l 249 528 l 360 528 l 343 683 l 469 590 l 525 688 l 382 750 l 525 813 l 469 910 l 343 817 l 360 972 l 249 972 l 265 817 l 139 910 l 83 813 l 226 750 z "},"#":{"ha":1279,"x_min":0,"x_max":0,"o":"m 196 611 l 196 486 l 404 486 l 325 208 l 83 208 l 83 83 l 289 83 l 201 -222 l 346 -222 l 433 83 l 692 83 l 604 -222 l 749 -222 l 836 83 l 1083 83 l 1083 208 l 872 208 l 951 486 l 1196 486 l 1196 611 l 988 611 l 1092 972 l 947 972 l 843 611 l 585 611 l 689 972 l 544 972 l 440 611 z m 469 208 l 549 486 l 807 486 l 728 208 z "},"/":{"ha":654,"x_min":0,"x_max":0,"o":"m 571 972 l 426 972 l 83 -222 l 228 -222 z "},"\\":{"ha":654,"x_min":0,"x_max":0,"o":"m 83 972 l 426 -222 l 571 -222 l 228 972 z "},"(":{"ha":492,"x_min":0,"x_max":0,"o":"m 408 972 l 250 972 b 250 -222 28 601 28 149 l 408 -222 b 408 972 167 149 167 601 z "},")":{"ha":492,"x_min":0,"x_max":0,"o":"m 242 972 l 83 972 b 83 -222 325 601 325 149 l 242 -222 b 242 972 464 149 464 601 z "},"{":{"ha":513,"x_min":0,"x_max":0,"o":"m 164 24 b 429 -222 164 -131 258 -222 l 429 -97 b 303 99 318 -97 303 -50 b 181 371 303 193 303 371 l 181 379 b 303 651 303 379 303 557 b 429 847 303 800 318 847 l 429 972 b 164 726 258 972 164 881 b 83 438 164 601 210 438 l 83 313 b 164 24 210 313 164 149 z "},"}":{"ha":513,"x_min":0,"x_max":0,"o":"m 349 24 b 429 313 349 149 303 313 l 429 438 b 349 726 303 438 349 601 b 83 972 349 881 254 972 l 83 847 b 210 651 194 847 210 800 b 332 379 210 557 210 379 l 332 371 b 210 99 210 371 210 193 b 83 -97 210 -50 194 -97 l 83 -222 b 349 24 254 -222 349 -131 z "},"[":{"ha":554,"x_min":0,"x_max":0,"o":"m 471 972 l 83 972 l 83 -222 l 471 -222 l 471 -97 l 222 -97 l 222 847 l 471 847 z "},"]":{"ha":554,"x_min":0,"x_max":0,"o":"m 471 972 l 83 972 l 83 847 l 332 847 l 332 -97 l 83 -97 l 83 -222 l 471 -222 z "},"-":{"ha":656,"x_min":0,"x_max":0,"o":"m 83 356 l 572 356 l 572 481 l 83 481 z "},"–":{"ha":972,"x_min":0,"x_max":0,"o":"m 83 356 l 889 356 l 889 481 l 83 481 z "},"—":{"ha":1611,"x_min":0,"x_max":0,"o":"m 83 356 l 1528 356 l 1528 481 l 83 481 z "},"_":{"ha":917,"x_min":0,"x_max":0,"o":"m 83 -187 l 833 -187 l 833 -62 l 83 -62 z "},"‚":{"ha":306,"x_min":0,"x_max":0,"o":"m 83 125 l 83 0 l 125 0 l 83 -167 l 168 -167 l 222 0 l 222 125 z "},"„":{"ha":306,"x_min":0,"x_max":0,"o":"m 83 125 l 83 0 l 125 0 l 83 -167 l 168 -167 l 222 0 l 222 125 z "},"“":{"ha":528,"x_min":0,"x_max":0,"o":"m 222 681 l 222 806 l 181 806 l 222 972 l 138 972 l 83 806 l 83 681 z m 306 681 l 444 681 l 444 806 l 403 806 l 444 972 l 360 972 l 306 806 z "},"”":{"ha":528,"x_min":0,"x_max":0,"o":"m 306 958 l 306 833 l 347 833 l 306 667 l 390 667 l 444 833 l 444 958 z m 83 667 l 168 667 l 222 833 l 222 958 l 83 958 l 83 833 l 125 833 z "},"‘":{"ha":306,"x_min":0,"x_max":0,"o":"m 222 681 l 222 806 l 181 806 l 222 972 l 138 972 l 83 806 l 83 681 z "},"’":{"ha":306,"x_min":0,"x_max":0,"o":"m 83 958 l 83 833 l 125 833 l 83 667 l 168 667 l 222 833 l 222 958 z "},"«":{"ha":886,"x_min":0,"x_max":0,"o":"m 506 83 l 271 346 l 506 611 l 321 611 l 83 346 l 321 83 z m 381 346 l 618 83 l 803 83 l 568 346 l 803 611 l 618 611 z "},"»":{"ha":886,"x_min":0,"x_max":0,"o":"m 381 83 l 565 83 l 803 346 l 565 611 l 381 611 l 615 346 z m 83 83 l 268 83 l 506 346 l 268 611 l 83 611 l 318 346 z "},"‹":{"ha":589,"x_min":0,"x_max":0,"o":"m 506 83 l 271 346 l 506 611 l 321 611 l 83 346 l 321 83 z "},"›":{"ha":589,"x_min":0,"x_max":0,"o":"m 83 83 l 268 83 l 506 346 l 268 611 l 83 611 l 318 346 z "},"\"":{"ha":528,"x_min":0,"x_max":0,"o":"m 83 972 l 83 667 l 222 667 l 222 972 z m 306 667 l 444 667 l 444 972 l 306 972 z "},"'":{"ha":306,"x_min":0,"x_max":0,"o":"m 83 972 l 83 667 l 222 667 l 222 972 z "},"¢":{"ha":822,"x_min":0,"x_max":0,"o":"m 83 472 b 342 174 83 331 165 203 l 342 0 l 481 0 l 481 169 b 739 403 651 189 739 292 l 600 403 b 481 296 596 365 574 310 l 481 649 b 600 542 574 635 596 579 l 739 542 b 481 775 739 653 651 756 l 481 944 l 342 944 l 342 771 b 83 472 165 742 83 614 z m 222 472 b 342 644 222 571 253 625 l 342 300 b 222 472 253 319 222 374 z "},"¤":{"ha":935,"x_min":0,"x_max":0,"o":"m 751 864 l 675 788 b 472 847 622 826 554 847 b 263 782 388 847 317 824 l 181 864 l 83 767 l 178 672 b 140 486 153 619 140 557 b 185 286 140 410 156 342 l 83 186 l 182 89 l 275 182 b 472 125 326 144 393 125 b 675 185 554 125 622 146 l 754 106 l 851 204 l 764 292 b 804 486 790 346 804 413 b 764 679 804 560 790 625 l 850 767 z m 279 486 b 472 722 279 667 329 722 b 665 486 615 722 665 667 b 472 250 665 306 615 250 b 279 486 329 250 279 306 z "},"$":{"ha":750,"x_min":0,"x_max":0,"o":"m 306 944 l 306 818 b 83 625 167 806 83 731 b 306 422 83 510 129 460 l 306 257 b 97 340 243 269 185 294 l 97 200 b 306 131 171 161 235 139 l 306 0 l 444 0 l 444 128 b 667 333 588 142 667 215 b 444 536 667 454 610 499 l 444 681 b 597 636 492 671 543 656 l 597 761 b 444 810 554 782 501 800 l 444 944 z m 222 628 b 306 693 222 658 242 688 l 306 565 b 222 628 233 582 222 597 z m 444 254 l 444 394 b 528 331 508 379 528 365 b 444 254 528 296 507 265 z "},"€":{"ha":804,"x_min":0,"x_max":0,"o":"m 83 472 b 503 -14 83 236 200 -14 b 721 14 553 -14 615 -14 l 721 139 b 503 111 615 111 553 111 b 256 258 376 111 297 161 l 550 258 l 550 383 l 226 383 b 222 472 224 411 222 440 l 222 481 l 550 481 l 550 606 l 233 606 b 503 833 261 756 344 833 b 721 806 553 833 615 833 l 721 931 b 503 958 615 958 553 958 b 83 472 200 958 83 708 z "},"£":{"ha":779,"x_min":0,"x_max":0,"o":"m 128 611 b 83 125 128 389 272 231 l 83 0 l 696 0 l 696 125 l 236 125 b 304 368 332 169 326 263 l 567 368 l 567 493 l 278 493 b 267 597 271 528 267 564 b 464 833 267 751 308 833 b 696 806 514 833 578 831 l 696 931 b 464 958 579 954 514 958 b 128 611 190 958 128 778 z "},"¥":{"ha":997,"x_min":0,"x_max":0,"o":"m 174 508 l 174 383 l 425 383 l 429 376 l 429 286 l 174 286 l 174 161 l 431 161 l 431 0 l 568 0 l 568 161 l 825 161 l 825 286 l 568 286 l 568 376 l 572 383 l 825 383 l 825 508 l 649 508 l 914 944 l 751 944 l 503 521 l 494 521 l 246 944 l 83 944 l 349 508 z "},"+":{"ha":656,"x_min":0,"x_max":0,"o":"m 83 356 l 265 356 l 265 174 l 390 174 l 390 356 l 572 356 l 572 481 l 390 481 l 390 663 l 265 663 l 265 481 l 83 481 z "},"−":{"ha":656,"x_min":0,"x_max":0,"o":"m 83 356 l 572 356 l 572 481 l 83 481 z "},"×":{"ha":611,"x_min":0,"x_max":0,"o":"m 88 547 l 217 418 l 88 289 l 176 201 l 306 331 l 433 201 l 522 289 l 393 418 l 522 547 l 433 635 l 306 507 l 176 635 z "},"÷":{"ha":656,"x_min":0,"x_max":0,"o":"m 83 349 l 572 349 l 572 474 l 83 474 z m 258 128 l 397 128 l 397 253 l 258 253 z m 258 569 l 397 569 l 397 694 l 258 694 z "},"=":{"ha":656,"x_min":0,"x_max":0,"o":"m 83 481 l 572 481 l 572 606 l 83 606 z m 83 231 l 572 231 l 572 356 l 83 356 z "},"≠":{"ha":656,"x_min":0,"x_max":0,"o":"m 572 836 l 422 836 l 329 606 l 83 606 l 83 481 l 278 481 l 228 356 l 83 356 l 83 231 l 176 231 l 83 0 l 233 0 l 326 231 l 572 231 l 572 356 l 378 356 l 428 481 l 572 481 l 572 606 l 479 606 z "},">":{"ha":778,"x_min":0,"x_max":0,"o":"m 83 604 l 569 422 l 569 414 l 83 232 l 83 86 l 694 313 l 694 524 l 83 750 z "},"<":{"ha":778,"x_min":0,"x_max":0,"o":"m 694 604 l 694 750 l 83 524 l 83 313 l 694 86 l 694 232 l 208 414 l 208 422 z "},"≥":{"ha":778,"x_min":0,"x_max":0,"o":"m 83 56 l 694 56 l 694 181 l 83 181 z m 83 278 l 694 396 l 694 632 l 83 750 l 83 604 l 556 518 l 556 510 l 83 424 z "},"≤":{"ha":778,"x_min":0,"x_max":0,"o":"m 694 56 l 694 181 l 83 181 l 83 56 z m 83 396 l 694 278 l 694 424 l 222 510 l 222 518 l 694 604 l 694 750 l 83 632 z "},"±":{"ha":778,"x_min":0,"x_max":0,"o":"m 83 63 l 694 63 l 694 188 l 83 188 z m 83 451 l 319 451 l 319 278 l 458 278 l 458 451 l 694 451 l 694 576 l 458 576 l 458 750 l 319 750 l 319 576 l 83 576 z "},"≈":{"ha":825,"x_min":0,"x_max":0,"o":"m 83 451 l 222 451 b 278 549 222 507 232 549 b 561 451 349 549 435 451 b 742 674 718 451 742 590 l 603 674 b 547 576 603 618 593 576 b 264 674 476 576 390 674 b 83 451 107 674 83 535 z m 83 146 l 222 146 b 278 243 222 201 232 243 b 561 146 349 243 435 146 b 742 368 718 146 742 285 l 603 368 b 547 271 603 313 593 271 b 264 368 476 271 390 368 b 83 146 107 368 83 229 z "},"~":{"ha":825,"x_min":0,"x_max":0,"o":"m 83 307 l 222 307 b 278 404 222 363 232 404 b 561 307 349 404 435 307 b 742 529 718 307 742 446 l 603 529 b 547 432 603 474 593 432 b 264 529 476 432 390 529 b 83 307 107 529 83 390 z "},"¬":{"ha":790,"x_min":0,"x_max":0,"o":"m 83 511 l 83 386 l 568 386 l 568 136 l 707 136 l 707 511 z "},"^":{"ha":664,"x_min":0,"x_max":0,"o":"m 435 511 l 581 511 l 442 944 l 222 944 l 83 511 l 229 511 l 328 833 l 336 833 z "},"∅":{"ha":1088,"x_min":0,"x_max":0,"o":"m 538 -14 b 954 418 794 -14 954 158 b 889 668 954 515 932 600 l 1004 785 l 904 882 l 794 771 b 538 847 726 819 640 847 b 121 418 279 847 121 675 b 190 157 121 317 146 228 l 83 49 l 183 -49 l 288 57 b 538 -14 354 11 439 -14 z m 260 418 b 538 722 260 599 356 722 b 701 676 603 722 658 706 l 290 258 b 260 418 269 304 260 358 z m 381 153 l 789 565 b 815 418 806 524 815 474 b 538 111 815 235 718 111 b 381 153 475 111 422 125 z "},"∞":{"ha":1325,"x_min":0,"x_max":0,"o":"m 83 346 b 339 51 83 154 193 51 b 663 247 469 51 576 151 b 986 51 749 151 856 51 b 1242 346 1132 51 1242 154 b 986 640 1242 538 1132 640 b 663 444 856 640 749 540 b 339 640 576 540 469 640 b 83 346 193 640 83 538 z m 222 346 b 339 515 222 472 268 515 b 579 346 425 515 496 431 b 339 176 496 261 425 176 b 222 346 268 176 222 219 z m 746 346 b 986 515 829 431 900 515 b 1103 346 1057 515 1103 472 b 986 176 1103 219 1057 176 b 746 346 900 176 829 261 z "},"∫":{"ha":915,"x_min":0,"x_max":0,"o":"m 499 111 l 556 625 b 675 833 575 779 575 833 b 832 806 711 833 747 831 l 832 944 b 675 972 763 968 711 972 b 417 639 457 972 436 806 l 360 125 b 240 -83 340 -29 340 -83 b 83 -56 204 -83 168 -81 l 83 -194 b 240 -222 153 -218 204 -222 b 499 111 458 -222 479 -56 z "},"∏":{"ha":974,"x_min":0,"x_max":0,"o":"m 83 972 l 83 847 l 222 847 l 222 -222 l 361 -222 l 361 847 l 613 847 l 613 -222 l 751 -222 l 751 847 l 890 847 l 890 972 z "},"∑":{"ha":793,"x_min":0,"x_max":0,"o":"m 83 972 l 83 847 l 486 379 l 486 371 l 83 -97 l 83 -222 l 710 -222 l 710 -97 l 274 -97 l 274 -89 l 617 308 l 617 442 l 274 839 l 274 847 l 710 847 l 710 972 z "},"√":{"ha":1078,"x_min":0,"x_max":0,"o":"m 697 972 l 356 -111 l 347 -111 l 229 272 l 83 272 l 242 -222 l 461 -222 l 799 847 l 994 847 l 994 972 z "},"∂":{"ha":844,"x_min":0,"x_max":0,"o":"m 622 319 b 429 111 622 226 583 111 b 222 306 261 111 222 190 b 400 506 222 421 268 506 b 622 319 550 506 622 456 z m 83 306 b 429 -14 83 56 261 -14 b 761 347 597 -14 761 97 b 283 972 761 658 578 860 l 224 847 b 563 586 392 783 501 699 b 386 631 513 614 453 631 b 83 306 215 631 83 519 z "},"%":{"ha":1610,"x_min":0,"x_max":0,"o":"m 1049 944 l 901 944 l 561 0 l 708 0 z m 83 667 b 374 375 83 490 190 375 b 664 667 557 375 664 490 b 374 958 664 843 557 958 b 83 667 190 958 83 843 z m 222 667 b 374 833 222 778 272 833 b 525 667 475 833 525 778 b 374 500 525 556 475 500 b 222 667 272 500 222 556 z m 946 278 b 1236 -14 946 101 1053 -14 b 1526 278 1419 -14 1526 101 b 1236 569 1526 454 1419 569 b 946 278 1053 569 946 454 z m 1085 278 b 1236 444 1085 389 1135 444 b 1388 278 1338 444 1388 389 b 1236 111 1388 167 1338 111 b 1085 278 1135 111 1085 167 z "},"‰":{"ha":2276,"x_min":0,"x_max":0,"o":"m 1903 -14 b 2193 278 2086 -14 2193 101 b 1903 569 2193 454 2086 569 b 1613 278 1719 569 1613 454 b 1903 -14 1613 101 1719 -14 z m 83 667 b 374 375 83 490 190 375 b 664 667 557 375 664 490 b 374 958 664 843 557 958 b 83 667 190 958 83 843 z m 222 667 b 374 833 222 778 272 833 b 525 667 475 833 525 778 b 374 500 525 556 475 500 b 222 667 272 500 222 556 z m 561 0 l 708 0 l 1049 944 l 901 944 z m 946 278 b 1236 -14 946 101 1053 -14 b 1526 278 1419 -14 1526 101 b 1236 569 1526 454 1419 569 b 946 278 1053 569 946 454 z m 1085 278 b 1236 444 1085 389 1135 444 b 1388 278 1338 444 1388 389 b 1236 111 1388 167 1338 111 b 1085 278 1135 111 1085 167 z m 1751 278 b 1903 444 1751 389 1801 444 b 2054 278 2004 444 2054 389 b 1903 111 2054 167 2004 111 b 1751 278 1801 111 1751 167 z "},"↑":{"ha":913,"x_min":0,"x_max":0,"o":"m 556 874 l 457 972 l 83 599 l 182 501 l 388 706 l 388 -222 l 526 -222 l 526 706 l 732 501 l 829 599 z "},"↗":{"ha":1061,"x_min":0,"x_max":0,"o":"m 978 657 l 978 796 l 449 796 l 450 658 l 740 657 l 83 1 l 182 -97 l 838 558 l 839 269 l 976 269 z "},"→":{"ha":1361,"x_min":0,"x_max":0,"o":"m 1179 251 l 1278 350 l 904 724 l 807 625 l 1011 419 l 83 419 l 83 281 l 1011 281 l 807 75 l 904 -22 z "},"↘":{"ha":1061,"x_min":0,"x_max":0,"o":"m 978 42 l 976 429 l 839 429 l 838 140 l 182 796 l 83 697 l 740 42 l 450 40 l 449 -97 l 978 -97 z "},"↓":{"ha":913,"x_min":0,"x_max":0,"o":"m 556 -124 l 829 151 l 732 249 l 526 44 l 526 972 l 388 972 l 388 44 l 182 249 l 83 151 l 457 -222 z "},"↙":{"ha":1061,"x_min":0,"x_max":0,"o":"m 83 42 l 83 -97 l 613 -97 l 611 40 l 321 42 l 978 697 l 879 796 l 224 140 l 222 429 l 85 429 z "},"←":{"ha":1361,"x_min":0,"x_max":0,"o":"m 182 251 l 457 -22 l 554 75 l 350 281 l 1278 281 l 1278 419 l 350 419 l 554 625 l 457 724 l 83 350 z "},"↖":{"ha":1061,"x_min":0,"x_max":0,"o":"m 83 657 l 85 269 l 222 269 l 224 558 l 879 -97 l 978 1 l 321 657 l 611 658 l 613 796 l 83 796 z "},"↔":{"ha":1472,"x_min":0,"x_max":0,"o":"m 1290 251 l 1389 350 l 1015 724 l 918 625 l 1122 419 l 350 419 l 554 625 l 457 724 l 83 350 l 182 251 l 457 -22 l 554 75 l 350 281 l 1122 281 l 918 75 l 1015 -22 z "},"↕":{"ha":913,"x_min":0,"x_max":0,"o":"m 357 -204 l 456 -303 l 829 71 l 731 168 l 525 -36 l 525 736 l 731 532 l 829 629 l 456 1003 l 357 904 l 83 629 l 181 532 l 386 736 l 386 -36 l 181 168 l 83 71 z "},"◊":{"ha":664,"x_min":0,"x_max":0,"o":"m 435 472 l 336 150 l 328 150 l 229 472 l 328 794 l 336 794 z m 83 472 l 222 39 l 442 39 l 581 472 l 442 906 l 222 906 z "},"@":{"ha":1222,"x_min":0,"x_max":0,"o":"m 83 972 l 83 -222 l 1000 -222 l 1000 -97 l 222 -97 l 222 847 l 1000 847 l 1000 181 l 881 181 l 881 694 l 742 694 l 742 611 b 576 708 700 657 660 708 b 342 375 407 708 342 551 b 576 42 342 199 407 42 b 742 139 660 42 700 93 l 742 56 l 1139 56 l 1139 972 z m 481 375 b 611 583 481 514 517 583 b 742 375 706 583 742 514 b 611 167 742 236 706 167 b 481 375 517 167 481 236 z "},"&":{"ha":979,"x_min":0,"x_max":0,"o":"m 615 83 l 615 0 l 896 0 l 896 125 l 754 125 l 754 438 l 896 438 l 896 563 l 754 563 l 754 847 l 615 847 l 615 563 l 408 563 b 250 694 293 563 250 604 b 374 833 250 764 286 833 b 511 806 410 833 440 829 l 511 931 b 360 958 440 954 410 958 b 111 722 176 958 111 829 b 286 515 111 629 139 533 l 286 493 b 83 250 131 485 83 363 b 374 -14 83 115 163 -14 b 615 83 471 -14 546 28 z m 222 264 b 408 438 222 382 293 438 l 615 438 l 615 222 b 374 111 546 167 471 111 b 222 264 272 111 222 167 z "},"¶":{"ha":868,"x_min":0,"x_max":0,"o":"m 410 365 l 410 -222 l 549 -222 l 549 972 l 410 972 b 83 669 138 972 83 840 b 410 365 83 499 138 365 z m 646 -222 l 785 -222 l 785 972 l 646 972 z "},"§":{"ha":896,"x_min":0,"x_max":0,"o":"m 83 407 b 410 169 83 239 185 231 b 644 22 572 125 644 107 b 465 -97 644 -64 576 -97 b 117 -15 376 -97 256 -67 l 117 -143 b 461 -222 224 -189 349 -222 b 783 18 649 -222 783 -150 b 686 179 783 83 754 136 b 813 344 767 207 813 263 b 486 582 813 492 711 521 b 251 729 324 626 251 644 b 431 847 251 814 319 847 b 779 765 519 847 640 817 l 779 893 b 435 972 672 939 547 972 b 113 733 247 972 113 900 b 210 572 113 668 142 615 b 83 407 129 544 83 490 z m 222 418 b 457 458 222 486 269 510 b 674 333 578 425 674 408 b 439 293 674 267 629 242 b 222 418 319 325 222 342 z "},"©":{"ha":1111,"x_min":0,"x_max":0,"o":"m 83 944 l 83 0 l 1028 0 l 1028 944 z m 222 125 l 222 819 l 889 819 l 889 125 z m 311 472 b 561 222 311 338 399 222 b 800 431 701 222 800 304 l 661 431 b 561 347 656 400 640 347 b 450 472 486 347 450 389 b 561 597 450 556 486 597 b 661 514 640 597 656 544 l 800 514 b 561 722 800 638 701 722 b 311 472 399 722 311 607 z "},"®":{"ha":917,"x_min":0,"x_max":0,"o":"m 83 972 l 83 222 l 833 222 l 833 972 z m 222 347 l 222 847 l 694 847 l 694 347 z m 319 458 l 458 458 l 458 611 l 597 611 l 597 736 l 319 736 z "},"™":{"ha":1383,"x_min":0,"x_max":0,"o":"m 83 847 l 256 847 l 256 500 l 394 500 l 394 847 l 567 847 l 567 972 l 83 972 z m 633 500 l 772 500 l 772 847 l 897 847 l 897 500 l 1036 500 l 1036 847 l 1161 847 l 1161 500 l 1300 500 l 1300 972 l 633 972 z "},"°":{"ha":719,"x_min":0,"x_max":0,"o":"m 360 417 b 636 694 543 417 636 518 b 360 972 636 871 543 972 b 83 694 176 972 83 871 b 360 417 83 518 176 417 z m 222 694 b 360 833 222 792 258 833 b 497 694 461 833 497 792 b 360 556 497 597 461 556 b 222 694 258 556 222 597 z "},"|":{"ha":306,"x_min":0,"x_max":0,"o":"m 83 972 l 83 -222 l 222 -222 l 222 972 z "},"¦":{"ha":306,"x_min":0,"x_max":0,"o":"m 83 972 l 83 522 l 222 522 l 222 972 z m 83 -222 l 222 -222 l 222 228 l 83 228 z "},"†":{"ha":656,"x_min":0,"x_max":0,"o":"m 258 972 l 258 788 l 83 788 l 83 663 l 258 663 l 258 240 l 397 240 l 397 663 l 572 663 l 572 788 l 397 788 l 397 972 z "},"‡":{"ha":656,"x_min":0,"x_max":0,"o":"m 258 972 l 258 788 l 83 788 l 83 663 l 258 663 l 258 538 l 83 538 l 83 413 l 258 413 l 258 240 l 397 240 l 397 413 l 572 413 l 572 538 l 397 538 l 397 663 l 572 663 l 572 788 l 397 788 l 397 972 z "},"ʼ":{"ha":444,"x_min":0,"x_max":0,"o":"m 210 1056 l 83 847 l 207 847 l 361 1056 z "},"̈":{"ha":0,"x_min":0,"x_max":0,"o":"m 83 972 l 83 847 l 222 847 l 222 972 z m 333 847 l 472 847 l 472 972 l 333 972 z "},"̇":{"ha":0,"x_min":0,"x_max":0,"o":"m 83 972 l 83 847 l 222 847 l 222 972 z "},"̀":{"ha":0,"x_min":0,"x_max":0,"o":"m 179 1056 l 28 1056 l 182 847 l 306 847 z "},"́":{"ha":0,"x_min":0,"x_max":0,"o":"m 210 1056 l 83 847 l 207 847 l 361 1056 z "},"̋":{"ha":0,"x_min":0,"x_max":0,"o":"m 210 1056 l 83 847 l 207 847 l 361 1056 z m 319 847 l 443 847 l 597 1056 l 446 1056 z "},"̂":{"ha":0,"x_min":0,"x_max":0,"o":"m 83 833 l 229 833 l 322 972 l 331 972 l 424 833 l 569 833 l 382 1069 l 271 1069 z "},"̌":{"ha":0,"x_min":0,"x_max":0,"o":"m 83 1083 l 271 847 l 382 847 l 569 1083 l 424 1083 l 331 944 l 322 944 l 229 1083 z "},"̆":{"ha":0,"x_min":0,"x_max":0,"o":"m 194 1042 l 83 1042 b 285 833 83 875 181 833 b 486 1042 389 833 486 878 l 375 1042 b 285 944 375 958 333 944 b 194 1042 236 944 194 958 z "},"̊":{"ha":0,"x_min":0,"x_max":0,"o":"m 264 819 b 444 986 378 819 444 899 b 264 1153 444 1074 378 1153 b 83 986 149 1153 83 1074 b 264 819 83 899 149 819 z m 194 986 b 264 1042 194 1025 218 1042 b 333 986 310 1042 333 1025 b 264 931 333 947 310 931 b 194 986 218 931 194 947 z "},"̃":{"ha":0,"x_min":0,"x_max":0,"o":"m 83 861 l 194 861 b 250 944 194 917 204 944 b 436 861 321 944 324 861 b 603 1056 579 861 603 986 l 492 1056 b 436 972 492 1000 482 972 b 250 1056 365 972 363 1056 b 83 861 107 1056 83 931 z "},"̄":{"ha":0,"x_min":0,"x_max":0,"o":"m 83 875 l 517 875 l 517 986 l 83 986 z "},"̒":{"ha":0,"x_min":0,"x_max":0,"o":"m 222 861 l 222 986 l 181 986 l 222 1153 l 138 1153 l 83 986 l 83 861 z "},"̦":{"ha":0,"x_min":0,"x_max":0,"o":"m 97 -56 l 97 -153 l 139 -153 l 97 -250 l 168 -250 l 222 -153 l 222 -56 z "},"̧":{"ha":0,"x_min":0,"x_max":0,"o":"m 83 -139 l 83 -222 b 207 -42 325 -258 376 -75 l 219 14 l 164 14 l 129 -42 b 83 -139 246 -64 218 -167 z "},"̨":{"ha":0,"x_min":0,"x_max":0,"o":"m 335 -222 l 335 -139 b 240 14 125 -167 181 -58 l 157 14 b 335 -222 31 -82 51 -264 z "},"̵":{"ha":0,"x_min":0,"x_max":0,"o":"m 83 349 l 517 349 l 517 488 l 83 488 z "},"̶":{"ha":0,"x_min":0,"x_max":0,"o":"m 83 349 l 1000 349 l 1000 488 l 83 488 z "},"̷":{"ha":0,"x_min":0,"x_max":0,"o":"m 83 450 l 83 293 l 517 525 l 517 682 z "},"̸":{"ha":0,"x_min":0,"x_max":0,"o":""},"´":{"ha":444,"x_min":0,"x_max":0,"o":"m 210 1056 l 83 847 l 207 847 l 361 1056 z "},"˘":{"ha":569,"x_min":0,"x_max":0,"o":"m 194 1042 l 83 1042 b 285 833 83 875 181 833 b 486 1042 389 833 486 878 l 375 1042 b 285 944 375 958 333 944 b 194 1042 236 944 194 958 z "},"ˇ":{"ha":653,"x_min":0,"x_max":0,"o":"m 83 1083 l 271 847 l 382 847 l 569 1083 l 424 1083 l 331 944 l 322 944 l 229 1083 z "},"¸":{"ha":390,"x_min":0,"x_max":0,"o":"m 83 -139 l 83 -222 b 207 -42 325 -258 376 -75 l 219 14 l 164 14 l 129 -42 b 83 -139 246 -64 218 -167 z "},"ˆ":{"ha":653,"x_min":0,"x_max":0,"o":"m 83 875 l 229 875 l 322 1014 l 331 1014 l 424 875 l 569 875 l 382 1111 l 271 1111 z "},"¨":{"ha":556,"x_min":0,"x_max":0,"o":"m 83 972 l 83 847 l 222 847 l 222 972 z m 333 847 l 472 847 l 472 972 l 333 972 z "},"˙":{"ha":306,"x_min":0,"x_max":0,"o":"m 83 972 l 83 847 l 222 847 l 222 972 z "},"`":{"ha":444,"x_min":0,"x_max":0,"o":"m 235 1056 l 83 1056 l 238 847 l 361 847 z "},"˝":{"ha":681,"x_min":0,"x_max":0,"o":"m 210 1056 l 83 847 l 207 847 l 361 1056 z m 319 847 l 443 847 l 597 1056 l 446 1056 z "},"¯":{"ha":600,"x_min":0,"x_max":0,"o":"m 83 875 l 517 875 l 517 986 l 83 986 z "},"˛":{"ha":418,"x_min":0,"x_max":0,"o":"m 335 -222 l 335 -139 b 240 14 125 -167 181 -58 l 157 14 b 335 -222 31 -82 51 -264 z "},"˚":{"ha":528,"x_min":0,"x_max":0,"o":"m 264 819 b 444 986 378 819 444 899 b 264 1153 444 1074 378 1153 b 83 986 149 1153 83 1074 b 264 819 83 899 149 819 z m 194 986 b 264 1042 194 1025 218 1042 b 333 986 310 1042 333 1025 b 264 931 333 947 310 931 b 194 986 218 931 194 947 z "},"˜":{"ha":686,"x_min":0,"x_max":0,"o":"m 83 861 l 194 861 b 250 944 194 917 204 944 b 436 861 321 944 324 861 b 603 1056 579 861 603 986 l 492 1056 b 436 972 492 1000 482 972 b 250 1056 365 972 363 1056 b 83 861 107 1056 83 931 z "}}}
